<svg xmlns="http://www.w3.org/2000/svg" viewBox="0 0 1039.38 965.85"><defs><style>.cls-1{fill:#010101;}.cls-2{fill:#ef7a1a;}</style></defs><g id="Ebene_2" data-name="Ebene 2"><g id="Ebene_2-2" data-name="Ebene 2"><path class="cls-1" d="M120.59,164.6l-.78-.78c0-.21,0-.42,0-.64a5.78,5.78,0,0,0-1.69-4.1L86.36,127.3a5.77,5.77,0,0,0-4.09-1.7l-.45,0A77.83,77.83,0,0,1,62.5,81.8L62,76.74a26.29,26.29,0,0,0-9.24-17.42A26,26,0,0,0,34,53.23c-8.94.65-16.18,2.1-21.53,4.32a2.33,2.33,0,0,0-.22,4.21L35.83,74.67l-6.93,15L3.47,75.52A2.34,2.34,0,0,0,1,75.65,2.36,2.36,0,0,0,0,78c1,5.69,3.65,12.58,7.9,20.5a26.1,26.1,0,0,0,11.73,11.18l-3.61,7.81a2.34,2.34,0,0,0,1.53,3.24l15.19,4a76.61,76.61,0,0,1,32.3,17.6c0,.18,0,.37,0,.55a5.76,5.76,0,0,0,1.69,4.1L98.53,178.7a5.73,5.73,0,0,0,4.09,1.7c.22,0,.44,0,.65,0l.78.78a11.7,11.7,0,0,0,16.54-16.54ZM96.76,144.31l4.38,4.38L91,158.82a2.34,2.34,0,0,0,3.31,3.3L104.45,152l4.38,4.38-13,13L83.75,157.32ZM80.44,154l-4.38-4.38,13-13L93.46,141ZM12,96.25a83.75,83.75,0,0,1-6.15-14l21,11.7L21.62,105.4A21.46,21.46,0,0,1,12,96.25Zm9.42,20.63L41,74.65a2.35,2.35,0,0,0-1-3L19.17,60.23a82,82,0,0,1,15.16-2.34,21.34,21.34,0,0,1,15.39,5,21.6,21.6,0,0,1,7.6,14.33l.54,5.06a82.35,82.35,0,0,0,19.73,45.59L67.4,138.07A81.21,81.21,0,0,0,34,120.15Zm48.26,25.94a1.09,1.09,0,0,1,.33-.79L81.47,130.6a1.15,1.15,0,0,1,1.59,0l2.71,2.72-13,13-2.71-2.71A1.11,1.11,0,0,1,69.72,142.82Zm29.4,29.87,13-13,2.71,2.71a1.11,1.11,0,0,1,0,1.58L103.42,175.4a1.12,1.12,0,0,1-1.59,0h0Zm18.17,5.15a7,7,0,0,1-9.81.11L117.4,168a7,7,0,0,1-.11,9.81Z"/><path class="cls-1" d="M52.39,96,41,91a2.34,2.34,0,0,0-1.78,0,2.31,2.31,0,0,0-1.29,1.24l-7.21,16.62A2.34,2.34,0,0,0,31.89,112l11.44,5a2.45,2.45,0,0,0,.93.19,2.57,2.57,0,0,0,.86-.16,2.37,2.37,0,0,0,1.28-1.25l7.21-16.62A2.34,2.34,0,0,0,52.39,96ZM43,111.7l-7.15-3.1,5.35-12.34,7.15,3.1Z"/><path class="cls-2" d="M1028.73,536h-1.87V390.79h1.87a10.65,10.65,0,1,0,0-21.29h-1.87V321.59a32.8,32.8,0,1,0-65.6,0V369.5h-18.6V321.59a32.8,32.8,0,1,0-65.6,0V369.5h-18.6V321.59a32.8,32.8,0,0,0-65.6,0V369.5H774.25V321.59a32.8,32.8,0,1,0-65.59,0V369.5H697.34v-5.66a10.65,10.65,0,0,0-21.29,0v32.61a10.65,10.65,0,1,0,21.29,0v-5.66h11.32V596.12a32.8,32.8,0,1,0,65.6,0V557.25h18.6v38.87a32.8,32.8,0,0,0,65.6,0V557.25h18.6v38.87a32.8,32.8,0,1,0,65.6,0V557.25h18.61v38.87a32.8,32.8,0,1,0,65.59,0V557.25h1.87a10.65,10.65,0,1,0,0-21.29Zm-254.47,0V390.79h18.6V536Zm84.2,0V390.79h18.6V536Zm84.2,0V390.79h18.6V536Z"/><path class="cls-1" d="M684.7,352.39c-2-.17-2.26.93-4.88,1.84-6.81,2.36-7,4.95-16.53,3.71-7.69-1-15.28-.12-26.94.76-6.57.49-18.5-2.29-29.41-5.36-50.33-14.18-28.31-89.41-56.72-116.1-43.57-40.92-60-32.2-111.28-28.32-8.56.65-10.37,5.37-15,5.78s-5.06,3-6.74,2.14c-5.06-2.59-5.79-6.39-3.37-11,1.36-2.56,2.39-.3,5.7-1.56C451.73,192,471,169,485.74,136.7c2.77-6,10-29.46,9.9-36.49-.63-33.27-1.43-65.74-29.35-86.91-39.47-29.93-66.5-4.76-90.13,30.09a85.35,85.35,0,0,0-7.88,15.52c-3.08,8.82-7.31,19.75-9.63,29.57s-6.55,21.15-6.3,31.17c.45,18.56-.05,34.65,6.84,52.11,8.29,21,17.47,23.79,37.44,32.42,1.7.73,2,3.51,1.62,5.64-.11.64,1.33,3.51-.71,4-.1-6.68-15.57-4.67-17.86-7.89-23.25-32.6-93.87,7.94-117.94,15.08-79.28,23.47-65.38,9.85-96.32-50.9-1.67-3.27,3.74-4.61.11-7.24a15.59,15.59,0,0,0,2.68-6.89c1.2-16.35-3.65-32.54-10.12-46.79-4-8.89-4.92-19.48-14-22.42-6.27-2-1,7.45-3.49,12.52s-1.66,11.32-11.83,14.86c-5,1.73-20.51,12.9-26.26,17.24-9.45,7.14-44.66,39.48-38.52,50.06,12.65,21.79,38.12-16.09,53.55-21.38,11.78-4,25.66-6.72,36.92,3.79,5.13,4.79,4.52-8.75,6.48,9.12,12.51,113.72,108.2,52.6,174.18,32,29.68-9.26,35.62,6.2,55.36,15.11,10.66,4.81,6.26,1.12,10.27,6.19,9.73,12.31,9.33,14.35,15.17,31.39,3.76,11,7,22.54,9.55,41.39,3.13,23.51,3.34,60.31,1.79,86.93-1.47,25.2-1.88,58.17-2.06,80-.21,26.4,3.3,36.42,6.11,59.18.3,2.42,1.82,1.81,1.92,4.4-1.88,1-4.26,6.35-5.45,7.9-37.57,48.67-69.7,106.9-87.28,164.12-6.65,21.67-4.43,30.33-7.38,47.27s1.48,28,1.32,41.45c-.05,4.71,3.29,9.53,1.6,9.89-19.42,4.13-36.54-3.86-55.71-6.24-1.42-.18-1.57,2.75-1.86,5.15-.39,3.18-4,7.71-5.69,11.52-1.92,4.46,2.05,7.84,6.37,9.47,2.06.78,4.15.46,1.67,3-9,9,58,5.68,70.2,5.6,2.77,0,16.83-4.69,15.12,1.64s-21,4.51-25.4,5c-10.62,1.15-42.93,5.79-8.6,4,6.06-.32,32.72-2.67,44-3.67s41.28-3.53,50.24-4.38c31.38-3,57.59-8,86.21-5.59,7.61.63-10.61,2.46-14.18,2.77-5.35.47-14.34,1.64-22.82,1.8a492.35,492.35,0,0,0-55.75,4.49c-5.3.73-19.22,2-23.72,2.39-17.66,1.68-59-2.17-68.66,10.78-4,5.33,10,2.9,18.22,3.28,13.69.63,39.13,2.22,58.35,2.11,4.77,0,25.42.54,32.17.92s29.53,4.61,31.85,4.91c14.19,1.84,70.78-1.76,68.58,13.18-.43,2.93-12.71,2-17,2.27-10.46.78-29.66,4.32-39,6.24-11.1,2.27-14.81,4.68-22.29,9.74-2.64,1.78.22,1.46-1.09,2.14a31.77,31.77,0,0,1-4,1.33c-1.28.48-2.91.85-3.59,1.91-1.05,1.66.36,1.81,1.49,2.6a4.84,4.84,0,0,1,2.35,2.72,8,8,0,0,0,2.29,3.74c.59.55,1.54,1.8,2.86,2,4.36.07,15.81,0,18.92-.09a256.27,256.27,0,0,1,29.91.8c5.23.41,6-.39,8.53,2s-7.42,0-6.77.27c1.76.78,6.18,1,11.84,1.53,12.12,1.22,33.81,1,43.06,13.77,5.79,8-.86,13.54-4,22.39-1.55,4.33-16.56,6.56-.5,11.15s33.2,6.49,50.24,7.05c2,.07,2-1.79,3.41-4.25s5.18-9,7.13-11.83,8.19-9,6.62-11.84c-5.47-9.78-5-10.74-16.33-16.24-14.86-7.21-37.43-12-54.59-16.59-8.4-2.22.52-3.34,5.71-3.3a119.09,119.09,0,0,0,14.49-2.48,88.91,88.91,0,0,1,15.57-2c2.55,0,10.42,1,9.52-.65-2.7-4.95-5.28-3.63-11.55-5.59-8.62-2.69-22.3-.5-32-4s-8.29.94,8.64-4.59c44.12-14.42-.34-19.13-23.72-21.25-6.87-.62-42.15-7.94-53.77-8.66-2.77-.17-13.32-.16-5.8-2.39,18.67-5.54,45.22-7.27,62.75-8.52a115.45,115.45,0,0,0,13.86-1.44c4.72-.73,2.26-1.12,5.61-1.7s11.14-1.78,13.67-2.07c13.72-1.53,47-.49,50.31-15.09,1.44-6.43-17.76-3.14-22.08-3.78-1-.15-8-.26-9.64-.59,0-1,1.64-2,2.18-2.53,1.2-1.08,3.32-2.82,2.93-4.28-1.12-4.26-3.19-6.19-6.94-8.14-4.82-2.51-6-6-11.7-8.37s-12.5-.25-19.89,2c-3.61,1.08-14.15,3.81-18.7,2.34-6.2-2-9.76,5-13.73-2.41-12.32-23-12.81-41.81-15-69.76s-6.12-63.49-14.64-92.34c-10.3-34.86-26-67.39-45.14-98.23a42.54,42.54,0,0,0-5.15-6.84c.54-2.28.79-.41,1.38-2.75,6.93-27.61,8-46.21,11.46-78.31,1.88-17.34-1.15-63.78-3.7-81.57-6.63-46.35-18.28-83.28-34.14-123.39-7.61-19.26-11.09-3.29-1.36-18.18,4.55-7,6.46-7.31,18.9-7.7,31.94-1,17.37-12.24,59.14-1.22,76.19,20.1,39.93,91.54,81.11,137.89,7.6,8.56,20.9,12.4,28.49,18.2a257,257,0,0,0,56.44,31.94c9.35,3.79,11.14,8.24,18,4.78,8.09-4.07-.05-9.38-3.57-14.76-5.78-8.85-5.62-21.14-1.31-30.76,1.67-3.72,2.89-5.19,3.35-8.23C686.53,352.05,686.71,352.55,684.7,352.39ZM457,15.57c8.49,6.66,16.85,14,21.64,26.46,3.38,8.82,8.34,21.58,8.22,32.8a170.65,170.65,0,0,1-21.71,82.1,64.08,64.08,0,0,1-9.47,12.95c-29.64,29.32-59.52,41-86.93,1-7.88-11.5-7.15-26-7.44-40.28-.26-13,2.58-27.75,6.37-40.87,6.85-23.7,17.74-48.59,36-65,12.7-11.4,22.66-12.76,38.65-14.48C448.22,9.63,451.06,10.9,457,15.57ZM446.27,365.09c3.15,23.87,4.28,59.51,3.5,81.53-1,27.19-3.6,42.06-6.39,66.16-.24,2.07-.81,1.36-1,3.53-.18-2.59-.8-2.12-1.07-4.79-3.14-31.41-2.9-58.83-1.28-92.44.4-8.21.86-32.75,1.12-44.11s.56-26.42.7-37c.07-4.8.1-4.48.12-8.51.51,3.83.68,5,1.3,9.09C444.63,347.39,444.91,354.74,446.27,365.09ZM451,542.45c19.87,32.36,35.55,66.41,45.58,104.45,6.6,25.06,10.33,57.84,11.83,83,1.46,24.42,3.73,44.39,11.08,65.23,2,5.63,2.46,3.67,4.18,7.46s3.62,4.42,6,7.64c1.09,1.47,3.72,3.18,4.28,5.14-9,.09-23.77.27-32.51.27-43.82,0-93.61,1.28-134.57,2.39-17.06.47-13.95.82-24.29.69-14.48-.19-3.26,1.18-2.61-2.66,1-5.82,5.81-5,5.75-12.76,0-2.5-2.06-5.22-1.85-11.11.56-16.05-5.69-22.81-2.66-42.56,6.29-41.08,17.71-80.1,38.86-120.15,13.56-25.7,34.1-62.41,53.83-85.81,4.07-4.83,3.39-9,9.06-7.95S447.46,536.66,451,542.45ZM410.27,823.81c3.06,2.9,1.81,3.37,3.6,4.9,2.18,1.85-17.1,1-23.55,1-7.62,0-4.2-1.17.69-3.11C394.79,825.08,407.93,821.58,410.27,823.81Z"/><path class="cls-1" d="M412.38,59.15c-5-.83-8.87,1.67-11.52,5.91-6,9.67-8.05,19.56-2.64,30.12,3.83,7.5,11.66,10.28,19.38,6.42S429.5,90.93,429.77,82C430.14,70.12,424.54,61.18,412.38,59.15Zm5.27,10.6c4.09,9.78,5.3,21.35-7.79,23.28-5.79.85-7.63-8.52-6.19-13.67s4.08-10.91,10.46-11.78A3.61,3.61,0,0,1,417.65,69.75Z"/><path class="cls-1" d="M454.18,64.58c-10.67.88-14.66,8.42-17.64,17.51-2.23,6.78.06,13.29,2.86,19.19a12.14,12.14,0,0,0,7,6.32c3.55,1.49,5.12,2.15,9.16,1a22.78,22.78,0,0,0,12.54-9.32c1.76-2.55,2.75-7.28,3.19-10.57s.75-8.34-.49-11.08C467.45,70.15,462.48,63.9,454.18,64.58ZM458.29,75c5.59,7,4.86,15.85-1.14,22.31-3.55,3.81-7.22,3.22-9.75-1.24a16.65,16.65,0,0,1,3.87-21.61C454.25,72,455.9,72.06,458.29,75Z"/><path class="cls-1" d="M456.12,133.18c-.61.78-.38,4.61-1.23,7.22-2,6.06-3.55,14.23-10.1,18.32-9.53,5.94-19.09,9.11-29.93,3.61-9.58-4.86-12.53-15.58-14.83-25.23-.64-2.7-.27-6-.67-7.82-.52-2.31-.18-3.33-2.26-2.27s-2.53,1.72-1.81,5.13c2.5,11.87,2.25,25.71,15.44,32.23,23,11.38,31.36,6.33,46-13.81,3.44-4.73,3.39-11.43,2.73-16.6C459.09,130.88,458.32,130.37,456.12,133.18Z"/></g></g></svg>