<svg xmlns="http://www.w3.org/2000/svg" viewBox="0 0 976.1 965.85"><defs><style>.cls-1{fill:#ef7a1a;}.cls-2{fill:#010101;}</style></defs><g id="Ebene_2" data-name="Ebene 2"><g id="Ebene_2-2" data-name="Ebene 2"><path class="cls-1" d="M965.46,536h-1.88V390.79h1.88a10.65,10.65,0,0,0,0-21.29h-1.88V321.59a32.8,32.8,0,1,0-65.59,0V369.5H879.38V321.59a32.8,32.8,0,1,0-65.59,0V369.5H795.18V321.59a32.8,32.8,0,1,0-65.59,0V369.5H711V321.59a32.8,32.8,0,0,0-65.6,0V369.5H634.06v-5.66a10.65,10.65,0,0,0-21.29,0v32.61a10.65,10.65,0,1,0,21.29,0v-5.66h11.32V596.12a32.8,32.8,0,0,0,65.6,0V557.25h18.61v38.87a32.8,32.8,0,1,0,65.59,0V557.25h18.61v38.87a32.8,32.8,0,1,0,65.59,0V557.25H898v38.87a32.8,32.8,0,0,0,65.6,0V557.25h1.87a10.65,10.65,0,0,0,0-21.29ZM711,536V390.79h18.61V536Zm84.2,0V390.79h18.61V536Zm84.2,0V390.79H898V536Z"/><path class="cls-2" d="M621.43,352.39c-2-.17-2.27.93-4.89,1.84-6.8,2.36-7,4.95-16.53,3.71-7.69-1-15.27-.12-26.94.76-6.57.49-18.5-2.29-29.4-5.36-50.34-14.18-28.31-89.41-56.73-116.1-43.57-40.92-60-32.2-111.28-28.32-8.56.65-10.37,5.37-15,5.78s-5.07,3-6.75,2.14c-5-2.59-5.79-6.39-3.37-11,1.36-2.56,2.4-.3,5.7-1.56C388.46,192,407.7,169,422.46,136.7c2.77-6,10-29.46,9.91-36.49-.64-33.27-1.44-65.74-29.35-86.91-39.48-29.93-66.51-4.76-90.14,30.09A86,86,0,0,0,305,58.91c-3.07,8.82-7.31,19.75-9.63,29.57s-6.54,21.15-6.3,31.17c.45,18.56-.05,34.65,6.85,52.11,8.29,21,17.46,23.79,37.44,32.42,1.7.73,2,3.51,1.61,5.64-.1.64,1.34,3.51-.71,4-.09-6.68-15.56-4.67-17.86-7.89-23.25-32.6-93.86,7.94-117.94,15.08-79.27,23.47-65.38,9.85-96.32-50.9-1.67-3.27,3.75-4.61.11-7.24a15.59,15.59,0,0,0,2.68-6.89c1.2-16.35-3.65-32.54-10.11-46.79-4-8.89-4.92-19.48-14-22.42-6.28-2-.95,7.45-3.5,12.52s-1.65,11.32-11.83,14.86c-4.95,1.73-20.51,12.9-26.26,17.24C29.79,138.57-5.43,170.91.71,181.49c12.65,21.79,38.12-16.09,53.55-21.38,11.78-4,25.67-6.72,36.93,3.79,5.13,4.79,4.51-8.75,6.48,9.12,12.5,113.72,108.19,52.6,174.17,32,29.69-9.26,35.62,6.2,55.37,15.11,10.65,4.81,6.26,1.12,10.26,6.19,9.73,12.31,9.33,14.35,15.17,31.39,3.76,11,7,22.54,9.55,41.39,3.14,23.51,3.35,60.31,1.79,86.93-1.47,25.2-1.88,58.17-2.05,80-.22,26.4,3.29,36.42,6.11,59.18.3,2.42,1.81,1.81,1.91,4.4-1.88,1-4.26,6.35-5.45,7.9-37.56,48.67-69.69,106.9-87.27,164.12-6.66,21.67-4.44,30.33-7.39,47.27s1.49,28,1.33,41.45c-.06,4.71,3.29,9.53,1.6,9.89-19.43,4.13-36.55-3.86-55.72-6.24-1.41-.18-1.57,2.75-1.86,5.15-.39,3.18-4,7.71-5.68,11.52-1.93,4.46,2.05,7.84,6.36,9.47,2.07.78,4.15.46,1.67,3-9,9,58,5.68,70.21,5.6,2.76,0,16.83-4.69,15.11,1.64s-21,4.51-25.4,5c-10.61,1.15-42.93,5.79-8.6,4,6.07-.32,32.73-2.67,44-3.67s41.28-3.53,50.24-4.38c31.38-3,57.59-8,86.21-5.59,7.62.63-10.6,2.46-14.17,2.77-5.36.47-14.35,1.64-22.83,1.8a492.36,492.36,0,0,0-55.74,4.49c-5.3.73-19.23,2-23.72,2.39-17.67,1.68-59-2.17-68.67,10.78-4,5.33,10,2.9,18.23,3.28,13.68.63,39.12,2.22,58.34,2.11,4.77,0,25.42.54,32.18.92s29.52,4.61,31.84,4.91c14.19,1.84,70.78-1.76,68.59,13.18-.43,2.93-12.72,2-17,2.27-10.46.78-29.67,4.32-39,6.24-11.1,2.27-14.81,4.68-22.3,9.74-2.64,1.78.22,1.46-1.08,2.14a31.91,31.91,0,0,1-4,1.33c-1.28.48-2.91.85-3.58,1.91-1.05,1.66.35,1.81,1.49,2.6a4.82,4.82,0,0,1,2.34,2.72,8,8,0,0,0,2.29,3.74c.59.55,1.54,1.8,2.86,2,4.37.07,15.81,0,18.92-.09a256.27,256.27,0,0,1,29.91.8c5.24.41,6-.39,8.54,2s-7.43,0-6.78.27c1.77.78,6.18,1,11.84,1.53,12.13,1.22,33.81,1,43.06,13.77,5.79,8-.86,13.54-4,22.39-1.56,4.33-16.57,6.56-.5,11.15s33.2,6.49,50.23,7.05c2,.07,2-1.79,3.41-4.25s5.18-9,7.13-11.83,8.19-9,6.63-11.84c-5.47-9.78-5-10.74-16.34-16.24-14.86-7.21-37.43-12-54.58-16.59-8.4-2.22.51-3.34,5.7-3.3a118.44,118.44,0,0,0,14.49-2.48,89.13,89.13,0,0,1,15.58-2c2.55,0,10.42,1,9.52-.65-2.71-4.95-5.29-3.63-11.55-5.59-8.62-2.69-22.31-.5-32-4s-8.3.94,8.63-4.59c44.13-14.42-.34-19.13-23.72-21.25-6.87-.62-42.15-7.94-53.77-8.66-2.76-.17-13.32-.16-5.79-2.39,18.66-5.54,45.21-7.27,62.75-8.52a115.45,115.45,0,0,0,13.86-1.44c4.72-.73,2.26-1.12,5.61-1.7s11.14-1.78,13.66-2.07c13.73-1.53,47-.49,50.31-15.09,1.45-6.43-17.75-3.14-22.08-3.78-1-.15-8-.26-9.63-.59,0-1,1.63-2,2.18-2.53,1.2-1.08,3.31-2.82,2.93-4.28-1.12-4.26-3.19-6.19-6.94-8.14-4.82-2.51-6-6-11.71-8.37s-12.49-.25-19.88,2c-3.61,1.08-14.16,3.81-18.7,2.34-6.2-2-9.77,5-13.74-2.41-12.31-23-12.81-41.81-14.95-69.76S447.5,662.28,439,633.43c-10.31-34.86-26-67.39-45.15-98.23a42.47,42.47,0,0,0-5.14-6.84c.54-2.28.79-.41,1.38-2.75,6.93-27.61,8-46.21,11.46-78.31,1.88-17.34-1.16-63.78-3.7-81.57-6.63-46.35-18.28-83.28-34.14-123.39-7.61-19.26-11.1-3.29-1.37-18.18,4.55-7,6.47-7.31,18.9-7.7,31.94-1,17.37-12.24,59.14-1.22,76.19,20.1,39.94,91.54,81.11,137.89,7.6,8.56,20.9,12.4,28.49,18.2a257.19,257.19,0,0,0,56.44,31.94c9.36,3.79,11.14,8.24,18,4.78,8.09-4.07-.05-9.38-3.57-14.76-5.77-8.85-5.62-21.14-1.3-30.76,1.66-3.72,2.89-5.19,3.35-8.23C623.26,352.05,623.43,352.55,621.43,352.39ZM393.73,15.57c8.49,6.66,16.86,14,21.64,26.46,3.39,8.82,8.35,21.58,8.22,32.8a170.65,170.65,0,0,1-21.71,82.1,63.62,63.62,0,0,1-9.46,12.95c-29.64,29.32-59.53,41-86.93,1-7.89-11.5-7.15-26-7.44-40.28-.27-13,2.57-27.75,6.36-40.87,6.86-23.7,17.75-48.59,36-65,12.7-11.4,22.65-12.76,38.64-14.48C384.94,9.63,387.78,10.9,393.73,15.57ZM383,365.09c3.15,23.87,4.27,59.51,3.49,81.53-1,27.19-3.6,42.06-6.39,66.16-.24,2.07-.81,1.36-1,3.53-.19-2.59-.81-2.12-1.08-4.79-3.13-31.41-2.9-58.83-1.28-92.44.4-8.21.86-32.75,1.13-44.11s.56-26.42.7-37c.06-4.8.09-4.48.11-8.51.52,3.83.69,5,1.31,9.09C381.36,347.39,381.63,354.74,383,365.09Zm4.74,177.36c19.87,32.36,35.55,66.41,45.58,104.45,6.6,25.06,10.33,57.84,11.83,83,1.46,24.42,3.73,44.39,11.08,65.23,2,5.63,2.46,3.67,4.18,7.46s3.63,4.42,6,7.64c1.09,1.47,3.72,3.18,4.29,5.14-9,.09-23.78.27-32.52.27-43.82,0-93.61,1.28-134.57,2.39-17.06.47-13.95.82-24.29.69-14.47-.19-3.26,1.18-2.61-2.66,1-5.82,5.81-5,5.75-12.76,0-2.5-2.06-5.22-1.85-11.11.56-16.05-5.68-22.81-2.66-42.56,6.3-41.08,17.72-80.1,38.86-120.15,13.57-25.7,34.1-62.41,53.83-85.81,4.07-4.83,3.39-9,9.07-7.95S384.19,536.66,387.74,542.45ZM347,823.81c3.05,2.9,1.8,3.37,3.6,4.9,2.18,1.85-17.11,1-23.56,1-7.61,0-4.2-1.17.69-3.11C331.51,825.08,344.65,821.58,347,823.81Z"/><path class="cls-2" d="M392.84,133.18c-.61.78-.38,4.61-1.22,7.22-2,6.06-3.56,14.23-10.11,18.32-9.53,5.94-19.09,9.11-29.93,3.61-9.58-4.86-12.53-15.58-14.82-25.23-.64-2.7-.27-6-.67-7.82-.52-2.31-.19-3.33-2.26-2.27s-2.54,1.72-1.82,5.13c2.5,11.87,2.25,25.71,15.44,32.23,23.05,11.38,31.36,6.33,46-13.81,3.44-4.73,3.4-11.43,2.73-16.6C395.81,130.88,395.05,130.37,392.84,133.18Z"/><path class="cls-2" d="M383.68,83.41c-.48,3.16-2.69,5.4-5.31,5.4-3.4,0-5.69-3.53-5-7.65.5-2.79,2.12-4.76,4.32-5.19C381.45,75.22,384.4,78.87,383.68,83.41Z"/><path class="cls-2" d="M359.46,87.66c-3.37,2.31-7.35.09-7.81-4.38-.28-3,1.12-5.93,3.39-7a4.77,4.77,0,0,1,6.21,2.33C362.75,81.59,361.88,86,359.46,87.66Z"/></g></g></svg>