<svg xmlns="http://www.w3.org/2000/svg" viewBox="0 0 668.23 1043.53"><defs><style>.cls-1{fill:#010101;}.cls-2{fill:#ef791b;}.cls-3{fill:#2a4b9b;}</style></defs><g id="Ebene_2" data-name="Ebene 2"><g id="Ebene_2-2" data-name="Ebene 2"><path class="cls-1" d="M594.65,272.67a2.78,2.78,0,0,0-.36,2.35c.36,1.39.24,1.45-4,1.87-42.57,3.86-134.47,31.48-239.52,71.94-40.71,15.68-75.44,30.39-97,41.07-9.59,4.7-11,5.24-12.54,4.76-2.53-.9-5.07.91-8.44,5.85-6.7,9.89-9.53,22.67-9.53,43.12,0,23.64,4.1,49,13.63,84.72,11.15,41.73,30,94.32,49.87,139,1.87,4.16,3.43,7.84,3.56,8.2s-2.66,2.59-6.16,5c-13.74,9.22-26.17,20.14-50,44.08-31.42,31.42-60.3,64-101.67,114.63-27.86,34.08-50.71,63.26-51.26,65.49-.78,3.14,1.51,6.88,5.91,9.65,9.71,6.15,38.9,13.09,96.07,22.86,9,1.5,21.83,3.74,28.64,4.88,32.08,5.49,36.3,6.51,49.09,12.24l3.49,1.57-37,.06c-23.82,0-40.22.24-46.07.72-4.95.43-16,1.33-24.43,2-54.45,4.23-81.46,8.75-77.12,12.85,1.81,1.75,10.85,3.86,23.15,5.43,6.76.84,30.16,3.31,32.21,3.37.54.06-.19.61-1.51,1.27a14.79,14.79,0,0,0-3.8,2.59l-1.27,1.39,50.36.42c37.56.3,55.84.73,71.64,1.57,11.69.66,22.73,1.21,24.54,1.21s3,.24,2.71.48a68.52,68.52,0,0,1-7.23,3.13c-11.1,4.41-27.38,11.88-34.38,15.8-25.2,14.05-28.64,23.4-10.55,29.07,26.77,8.44,92,8.38,225.23-.24,28.59-1.87,41.73-2.47,77.49-3.62,29.73-1,29.85-1,16.58-1.15-6.63-.12-11.45-.36-10.67-.48a2.79,2.79,0,0,0,1.69-1c.6-1.69,1.15-22.74.54-23-.3-.18.48-.3,1.87-.3s4.1-.24,6-.42l3.56-.36,1.69,3.86c2.47,5.72,6,10.79,11.7,16.76,4,4.22,4.82,5.37,4,5.61-.67.18-.36.3.72.36,1.69.06,1.63-.12-2.77-4.64a99.22,99.22,0,0,1-7.06-7.84c-2.53-3.26-7.36-12.31-7.36-13.75,0-.55-.66-.85-1.62-.85-3,0-40.65,3-74.66,6-59.22,5.19-93.41,6.21-150.46,4.41-13.74-.43-33.22-1-43.23-1.21-28.83-.72-30.52.18,33.29-18.21l29.54-8.5,9.95-.85c5.49-.48,17.49-1.33,26.72-1.81s17.36-1.2,18.09-1.51,1-.54.6-.54c-1.08-.06-1-1.26.06-1.26a11.5,11.5,0,0,0,2.53-.61c5-1.93-7.11-4-32.32-5.43-19.72-1.14-25.39-1.68-32-2.89-12.24-2.35-27.62-3.56-54.27-4.28-19.78-.54-57.53,0-74.6,1.14-8.14.49-14,.43-33.46-.6-13-.66-25-1.26-26.72-1.33-8.08-.24,26-1.08,68.14-1.68,25.87-.31,50.84-.91,55.48-1.21,7.78-.54,8.69-.48,11.64.6,4.95,1.87,7.72,1.63,10.07-.84a8.27,8.27,0,0,1,4.1-2.47c2.41-.49,4.59-1.81,3.92-2.42a12.63,12.63,0,0,0-3.25-1.14c-2.84-.72-2.84-.72-3.86-4.4-1.63-6-2.42-6.82-9.05-9.29a15.81,15.81,0,0,1-4.4-3.14l-2.29-2.29-18.21-.54c-16.53-.42-19.12-.66-27.86-2.29-5.31-1-21-3.8-35-6.15-43.72-7.42-68.5-12.24-84.12-16.4-13.51-3.56-22.8-7.48-22.07-9.23,1.08-2.84,51.25-65.25,75.07-93.41,47.64-56.26,90.16-100.28,115.54-119.52,6-4.58,12.91-9.29,13.51-9.29.85,0,1.75,3.08,2.78,9.35.48,3.32,1.32,7.9,1.81,10.25,1.08,5.13,1.08,5.13.12,5.13a30.17,30.17,0,0,0-5.61,2.35c-20.69,10.07-34.56,34.55-40.34,71.52-1.33,8.14-1.87,32.32-1,41.43,5,50.35,27.32,88.52,56.26,96.12a45.9,45.9,0,0,0,18.09,0c19.3-5.13,35.22-25.39,43.54-55.3,10.25-36.84,5.85-84.85-10.73-117.83q-13.12-26-31.72-35.28c-4.28-2.17-10.8-4.22-13.33-4.22-1.44,0-1.69-.36-2.59-3.5a29.51,29.51,0,0,1-1-6.51c0-3.08,1-10.43,1.39-10.85s18.39,5,25.15,7.41c23.82,8.32,38.71,16.16,52.16,27.38,3,2.53,9.65,8.26,14.77,12.85,12,10.73,19.3,16.82,27,22.55l6.15,4.64.06,23.82c.06,39.74,2.35,178.56,3,179.16s41.18,1.21,40.82.6,22.73-1.56,23.64-1,16.52.54,17.73.06,1.81-2.59,1.08-3.92a32,32,0,0,0-4.64-4.34c-19.12-15.38-32.44-18.58-45.53-10.92a81.06,81.06,0,0,1-18.81,8,48.88,48.88,0,0,1-6.76,1.69c-.6-.66-2.65-130.43-2.65-169.63V757.5l-6.45-4.88c-8.2-6.15-18.27-14.59-30.64-25.57-18-16-26.35-22.13-39.8-28.94-12.48-6.34-29.36-12.55-48.9-18.1l-9.11-2.53-.78-3.44c-.85-3.92-9.11-32.74-15.08-52.82-27.13-91.12-40.52-147.8-45.53-193.51-1-9.53-1.81-22.68-1.32-22.68,1.93,0,70.85-4.52,83-5.42,65.07-4.95,106.8-11.46,146.24-22.92a427.88,427.88,0,0,0,109.75-49.63l7.24-4.52.78,2.17a24.7,24.7,0,0,1,1,13.69l-1,3.86,5.91,7.11c5.79,6.94,6,7.3,7.06,12.12.66,2.72,1.44,4.95,1.81,4.95a13.5,13.5,0,0,0,2.71-.6c1.93-.55,2.23-.43,5.73,2.83,7.35,6.81,10.79,8.5,13.14,6.39,1-.9,1.15-1.57.91-4.46-.36-4.28-3.26-10.61-9.41-20.38-2.59-4.16-5.91-9.89-7.3-12.73-3.31-6.63-6.09-10.91-9.28-14.35a39.3,39.3,0,0,1-4.22-5.73c-2-3.43-3.38-4.4-7.12-4.82-2.53-.24-2.89-.12-2.89.84,0,1.27-4.65,4.4-19.3,13.21a421.87,421.87,0,0,1-75.86,35.64c-50.48,17.43-99.44,25.39-194.9,31.6-34.55,2.23-42.45,2.71-42.64,2.47-.66-.66,38.9-17.85,67.36-29.31,95.64-38.35,192.19-69.71,243.93-79.3,10.49-1.93,21.1-3.31,25.15-3.31h3.07l-.3,4.22-.3,4.22,6,3.68c14,8.62,27.07,20.56,34.73,31.78,2.11,3.07,4.52,6,5.37,6.57,1.51,1,1.57,1,2.89-.54,2.84-3.32,4-15.44,1.93-21.41-3.37-10.07-14.11-21.23-29.06-30.27-6.33-3.86-20.87-10.92-22.38-10.92A3.12,3.12,0,0,0,594.65,272.67ZM238.32,446c4.29,29.79,11.4,63,22,102.88,2.72,10.13,17.19,60.84,19.48,68.38,2.48,8,.67,3.86-5-11.52-20.32-54.69-32.87-100-37.75-136.46-1.39-10.14-2.23-32.21-1.45-36.85.48-2.83.48-2.83.72-.84C236.39,432.71,237.3,439.22,238.32,446Zm76,271.42c9.22,1.69,20.32,10.19,28.4,21.71,10.19,14.53,17.55,35.76,21.1,60.91,1.15,8.44,1,34-.3,42.63q-5.88,39.52-23.82,57.05c-5.06,4.94-6.27,5.91-10.25,7.9a27.53,27.53,0,0,1-14.71,3.13c-23.94-2.23-44.93-33.53-52-77.43-4.34-27-1.33-58.07,7.9-81.22,7.66-19.3,21.4-33.23,34.13-34.68C310.39,716.74,310.81,716.74,314.31,717.4Zm220.22,291.08a9.46,9.46,0,0,1-2.71,0c-.79-.12-.18-.24,1.33-.24S535.26,1008.36,534.53,1008.48Zm-4,24.13a24.77,24.77,0,0,1-4.22,0c-1-.12,0-.25,2.29-.25S531.82,1032.49,530.55,1032.61Z"/><path class="cls-1" d="M313.94,752.62c-6.81,1.93-13,6.81-17.79,14-1.62,2.47-3,4.82-3,5.25,0,.66,4.1,2.59,4.46,2.05.06-.06.85-1.39,1.69-2.9,3.92-6.81,10.25-11.94,16.89-13.63,7.23-1.87,15.13.73,23.75,7.72l4.89,4,1.57-2,1.56-1.93-3.19-2.77a54.26,54.26,0,0,0-14.17-8.93C326.25,751.9,318.17,751.41,313.94,752.62Z"/><path class="cls-1" d="M340.84,801.28c-7.72,1.51-13.45,8.45-15.2,18.28-2.47,14.47,5.61,26.89,17.55,26.89,9.23,0,17-7.9,18.69-19C364.42,811.47,354.05,798.63,340.84,801.28Zm7.78,9.53c6.27,4.4,7,17.79,1.32,23.76-4.94,5.19-11,4.34-14.59-2-1.26-2.29-1.51-3.5-1.45-7.84,0-8,2.66-13,7.9-14.77A6.89,6.89,0,0,1,348.62,810.81Z"/><path class="cls-1" d="M291.63,803.27c-8.14,3.8-13.14,14.17-12.12,25,1.63,16,15.86,23.94,27.92,15.68,8.62-5.85,11.76-21.71,6.39-32.32C309.54,803.15,299.71,799.47,291.63,803.27Zm11.22,8.39a12.6,12.6,0,0,1,3.56,4.34c1.26,2.47,1.5,3.86,1.44,8s-.24,5.42-1.81,8.44c-2.23,4.4-4.82,6.21-8.74,6.21-5.79,0-9.35-5.43-9.23-14,.06-3.74.37-5.25,1.69-8C292.72,810.63,298.21,808.52,302.85,811.66Z"/><path class="cls-2" d="M177.14,103.34a73.81,73.81,0,1,0,73.8,73.81A73.88,73.88,0,0,0,177.14,103.34Z"/><path class="cls-2" d="M177.14,0A20.13,20.13,0,0,0,157,20.13V64.42a20.13,20.13,0,0,0,40.26,0V20.13A20.13,20.13,0,0,0,177.14,0Z"/><path class="cls-2" d="M177.14,269.74A20.13,20.13,0,0,0,157,289.87v44.29a20.13,20.13,0,0,0,40.26,0V289.87A20.14,20.14,0,0,0,177.14,269.74Z"/><path class="cls-2" d="M111.67,83.2,80.35,51.89A20.13,20.13,0,0,0,51.88,80.35L83.2,111.67A20.13,20.13,0,0,0,111.67,83.2Z"/><path class="cls-2" d="M302.39,273.94l-31.31-31.32a20.13,20.13,0,0,0-28.47,28.47l31.31,31.32a20.13,20.13,0,0,0,28.47-28.47Z"/><path class="cls-2" d="M64.42,157H20.13a20.13,20.13,0,1,0,0,40.25H64.42a20.13,20.13,0,1,0,0-40.25Z"/><path class="cls-2" d="M334.15,157H289.86a20.13,20.13,0,1,0,0,40.25h44.29a20.13,20.13,0,1,0,0-40.25Z"/><path class="cls-2" d="M111.67,242.62a20.13,20.13,0,0,0-28.47,0L51.88,273.94a20.13,20.13,0,1,0,28.47,28.47l31.32-31.32A20.13,20.13,0,0,0,111.67,242.62Z"/><path class="cls-2" d="M302.39,51.89a20.13,20.13,0,0,0-28.47,0L242.61,83.2a20.13,20.13,0,0,0,28.47,28.47l31.31-31.32A20.12,20.12,0,0,0,302.39,51.89Z"/><path class="cls-3" d="M553.52,703.83a45.25,45.25,0,0,1-40.18-66A45.62,45.62,0,0,1,525,623.48V514a21.58,21.58,0,0,1,21.56-21.56h13.89A21.58,21.58,0,0,1,582,514V623.48a45.13,45.13,0,0,1,16.73,35.12,45.22,45.22,0,0,1-45.23,45.23Zm-6.95-202.5A12.7,12.7,0,0,0,533.89,514V625.66a4.43,4.43,0,0,1-1.82,3.58,36.36,36.36,0,1,0,42.89,0,4.43,4.43,0,0,1-1.82-3.58V514a12.7,12.7,0,0,0-12.68-12.68Z"/><path class="cls-3" d="M581.1,658.6a27.59,27.59,0,1,1-37-25.94V535.75a7,7,0,0,1,7-7H556a7,7,0,0,1,7,7v96.91A27.59,27.59,0,0,1,581.1,658.6Z"/><path class="cls-3" d="M508.29,524.94a3.64,3.64,0,0,1-3.64,3.63h-7.48a3.64,3.64,0,0,1-3.64-3.63v-4a3.64,3.64,0,0,1,3.64-3.64h7.48a3.64,3.64,0,0,1,3.64,3.64Z"/><path class="cls-3" d="M508.29,548.66a3.64,3.64,0,0,1-3.64,3.64h-7.48a3.64,3.64,0,0,1-3.64-3.64v-4a3.63,3.63,0,0,1,3.64-3.63h7.48a3.63,3.63,0,0,1,3.64,3.63Z"/><path class="cls-3" d="M508.29,572.38a3.63,3.63,0,0,1-3.64,3.64h-7.48a3.63,3.63,0,0,1-3.64-3.64v-4a3.64,3.64,0,0,1,3.64-3.64h7.48a3.64,3.64,0,0,1,3.64,3.64Z"/><path class="cls-3" d="M508.29,596.11a3.64,3.64,0,0,1-3.64,3.64h-7.48a3.64,3.64,0,0,1-3.64-3.64v-4a3.63,3.63,0,0,1,3.64-3.63h7.48a3.63,3.63,0,0,1,3.64,3.63Z"/><path class="cls-3" d="M508.29,619.83a3.63,3.63,0,0,1-3.64,3.64h-7.48a3.63,3.63,0,0,1-3.64-3.64v-4a3.64,3.64,0,0,1,3.64-3.64h7.48a3.64,3.64,0,0,1,3.64,3.64Z"/><path class="cls-3" d="M665,492.22H654.41L658,486a3.24,3.24,0,0,0-5.61-3.24l-3.6,6.25-5.19-9h7.21a3.24,3.24,0,1,0,0-6.47h-7.21l5.29-9.17a3.23,3.23,0,1,0-5.6-3.23L638,470.3l-3.61-6.25a3.23,3.23,0,0,0-5.6,3.23l3.6,6.25H622l3.6-6.25a3.23,3.23,0,0,0-5.6-3.23l-3.61,6.25-5.29-9.17a3.23,3.23,0,1,0-5.6,3.23l5.29,9.17h-7.21a3.24,3.24,0,1,0,0,6.47h7.21l-5.19,9L602,482.74a3.23,3.23,0,0,0-5.6,3.24l3.61,6.24H589.45a3.24,3.24,0,0,0,0,6.47H600l-3.61,6.25a3.24,3.24,0,0,0,1.18,4.42,3.28,3.28,0,0,0,1.62.43,3.23,3.23,0,0,0,2.8-1.61l3.61-6.25,5.19,9h-7.21a3.24,3.24,0,1,0,0,6.47h7.21l-5.29,9.16a3.23,3.23,0,0,0,1.18,4.42,3.18,3.18,0,0,0,1.61.44,3.24,3.24,0,0,0,2.81-1.62l5.29-9.17,3.61,6.25a3.22,3.22,0,0,0,2.8,1.62,3.19,3.19,0,0,0,1.62-.44,3.24,3.24,0,0,0,1.18-4.42l-3.6-6.24h10.37l-3.6,6.24a3.23,3.23,0,0,0,1.18,4.42,3.18,3.18,0,0,0,1.61.44,3.24,3.24,0,0,0,2.81-1.62l3.61-6.25,5.29,9.17a3.23,3.23,0,0,0,2.8,1.62,3.19,3.19,0,0,0,1.62-.44,3.23,3.23,0,0,0,1.18-4.42l-5.29-9.16h7.21a3.24,3.24,0,1,0,0-6.47h-7.21l5.19-9,3.6,6.25a3.24,3.24,0,0,0,5.61-3.24l-3.61-6.25H665a3.24,3.24,0,0,0,0-6.47Zm-28.85,18.7H618.3l-8.92-15.46L618.3,480h17.85l8.92,15.46Z"/></g></g></svg>