<svg xmlns="http://www.w3.org/2000/svg" viewBox="0 0 1130.96 856.73"><defs><style>.cls-1{fill:#2a4b9b;}.cls-2{fill:#010101;}.cls-3{fill:#1d1d1b;}</style></defs><g id="Ebene_2" data-name="Ebene 2"><g id="Ebene_2-2" data-name="Ebene 2"><path class="cls-1" d="M970,102.18a39.19,39.19,0,0,1,11.89-20c-22-23.37-12.83-50.08-7.06-66.74A50.89,50.89,0,0,0,978.58.9a34.24,34.24,0,0,0-4.4-.74C957-1.35,936.7,8.09,919.71,25.49,903.29,42.28,893.77,62.88,895.44,78,896.52,87.72,916.9,98.94,970,102.18Z"/><path class="cls-1" d="M1035.8,226.12c7.54-5.87,7.52-29.1-16.29-76.67a39.8,39.8,0,0,1-23.18-.31c-9.26,30.61-36.94,36.06-54.26,39.42a58.53,58.53,0,0,0-14.58,4.07,30.87,30.87,0,0,0,1.55,4.25c7.28,15.57,25.71,28.47,49.3,34.48C1001.06,237.14,1023.61,235.09,1035.8,226.12Z"/><path class="cls-1" d="M1108.23,130.48A50.68,50.68,0,0,0,1119,141.05a35.57,35.57,0,0,0,2.88-3.47c9.86-14.12,11.81-36.52,5.23-59.93-6.34-22.57-19.39-41.07-33.25-47.14-8.62-3.8-28.87,8-58.28,52.52a38.45,38.45,0,0,1,3.1,3,39.06,39.06,0,0,1,8.19,17.14C1078.09,95.87,1096.67,117.16,1108.23,130.48Z"/><path class="cls-1" d="M1025.38,97.2A22.25,22.25,0,1,1,994,94.46,22.24,22.24,0,0,1,1025.38,97.2Z"/><path class="cls-1" d="M810.36,391.43a39.15,39.15,0,0,1-3.74-22.95c-31.85-3.77-42-30.11-48.31-46.58a50.77,50.77,0,0,0-6.47-13.58,35.26,35.26,0,0,0-3.85,2.26c-14.1,9.87-23.62,30.18-25.45,54.42-1.78,23.42,4.16,45.32,15.14,55.8C744.78,427.57,767.6,423.07,810.36,391.43Z"/><path class="cls-1" d="M940.43,444.07c2-9.34-12.94-27.13-61.75-48.26a39.76,39.76,0,0,1-18,14.66c12.58,29.4-5.12,51.38-16.23,65.08A59,59,0,0,0,835.93,488a29.88,29.88,0,0,0,3.92,2.25c15.6,7.25,38,5.29,59.93-5.27C920.91,474.84,936.87,458.78,940.43,444.07Z"/><path class="cls-1" d="M934.45,324.25a50.3,50.3,0,0,0,15,1.17,32.18,32.18,0,0,0,0-4.5C947.94,303.76,935,285.34,915,271.64c-19.36-13.21-41.25-19-55.77-14.73-9,2.63-17,24.7-10.89,77.69a36.44,36.44,0,0,1,4.31.32,39.12,39.12,0,0,1,17.3,7.86C889.1,317.11,917,321.47,934.45,324.25Z"/><path class="cls-1" d="M849.59,352a22.24,22.24,0,1,1-25.77,18.05A22.25,22.25,0,0,1,849.59,352Z"/><path class="cls-1" d="M703.72,160.13A39.15,39.15,0,0,1,686.11,145c-26.83,17.59-51.55,4-67-4.63a51.46,51.46,0,0,0-13.68-6.24,35.13,35.13,0,0,0-1.5,4.21c-4.46,16.62,1.3,38.29,15.48,58,13.69,19.09,32.32,32,47.47,33C676.72,230,691.31,211.85,703.72,160.13Z"/><path class="cls-1" d="M837.21,116.85c-4.47-8.45-27.36-12.46-78.33,2.72a39.74,39.74,0,0,1-4.34,22.78c28.54,14.44,29.1,42.64,29.4,60.28a59.19,59.19,0,0,0,1.47,15.07,30.63,30.63,0,0,0,4.46-.79c16.6-4.47,32.5-20.38,42.52-42.56C842,153,843.93,130.41,837.21,116.85Z"/><path class="cls-1" d="M755.6,28.91a50.69,50.69,0,0,0,12.27-8.77A32.87,32.87,0,0,0,765,16.7c-12.19-12.16-33.91-18-58.11-15.56-23.33,2.33-43.81,12-52.2,24.56-5.23,7.83,2.89,29.83,41.6,66.51a39.4,39.4,0,0,1,3.51-2.52,39,39,0,0,1,18.31-5.09C716.28,52.59,740.47,38,755.6,28.91Z"/><path class="cls-1" d="M708.44,104.72a22.24,22.24,0,1,1-8.14,30.38A22.24,22.24,0,0,1,708.44,104.72Z"/><path class="cls-2" d="M98.22,569.41c3,1,4.85,3.59,4.4,6.17-.59,3.34-4.47,5-8.4,3.58-2.67-1-4.33-2.92-4.37-5.15C89.76,570.18,93.87,567.91,98.22,569.41Z"/><path class="cls-2" d="M141.93,820.94c1.24-.13.21-.17,0,0Z"/><path class="cls-2" d="M251.28,804.87a23.93,23.93,0,0,0,4.4,0c1.37-.13-2.11-.21-2.34-.21S249.73,804.73,251.28,804.87Z"/><path class="cls-2" d="M261.22,817.52a1.83,1.83,0,0,0,1.38,0c.46-.17-.58-.25-.71-.25S260.73,817.34,261.22,817.52Z"/><path class="cls-2" d="M241.92,818.08a24,24,0,0,0,4.4,0c1.37-.14-2.11-.22-2.34-.22S240.37,818,241.92,818.08Z"/><path class="cls-2" d="M243.31,839a65.58,65.58,0,0,0,7.15,0c2.28-.13-3.36-.16-3.72-.16S240.88,838.88,243.31,839Z"/><path class="cls-2" d="M247.15,856.63a9.79,9.79,0,0,0,2.76,0c.85-.13-1.36-.21-1.53-.22S246.14,856.49,247.15,856.63Z"/><path class="cls-3" d="M67.64,497.59c-1,1.13-1.93,2.27-2.89,3.42-.17.21-.35.41-.5.62.48-.92,1-1.85,1.5-2.81C66.38,498.41,67,498,67.64,497.59Z"/><path class="cls-3" d="M72.37,539.18l-.22.14L72,539Z"/><path class="cls-3" d="M67.64,497.59c-1,1.13-1.93,2.27-2.89,3.42-.17.21-.35.41-.5.62.48-.92,1-1.85,1.5-2.81C66.38,498.41,67,498,67.64,497.59Z"/><path class="cls-3" d="M694.74,420.14a57.37,57.37,0,0,0-15.84-3.21c-2.63-.12-7.93-.76-11.76-1.35s-9-1.24-13.62-1.67c-2.1-.2-6.41-.56-8.72-.83-3.13,1.51-3.61,1.66-7,3.36-22.93,11.41-44.75,25.5-67,39.59-2.5,1.58-9.32,5.85-12.29,7.78-2.6.37-3.51.53-6.09.82-9.77,1.11-13.89,1.53-26.32,2.32-3.09.2-20.55,1-27.77,1.31-13.94.54-34.37,1.72-47.33,2.58-4.46.3-5.2,1.24-6.31.33s-2.38.62-.66-1.67c3.75-5,16.49-10.32,30.33-17.93,18.8-10.34,51.76-26.85,71.75-44.17,7.62-6.61,7.82-10.42,11.37-25.19,3.2-13.28,9.09-41.69,11.16-58,.41-3.24-.39-5.45,1.6-7.23s4.74-1,8.78-1.57c10.38-1.57,32-1.55,41-.17,9.41,1.44,11.37,1.16,8.66-4.85-3.47-7.69-8.25-11.15-16.47-13.68-6.24-1.93-16.44-1.26-23.17-.27-8.07,1.18-18.8,3.5-25,6.89-4,2.16-1.41,2.6-1.22,5.2.11,1.47,1.24,2,.82,4.13s-.49,3.81-.87,6.82a522.13,522.13,0,0,1-14.28,72.24c-.67,2.44-1.55,5.45-2.26,7.95-2,1.56-4.07,3.15-6.09,4.69-21.8,16.68-46.67,29.68-70.62,42.6-8.27,4.46-22,11.79-27.77,15s-2.27,1.22-5.93,2.49c-16.78,5.8-26.38,14.42-43.05,25.88-36.69,25.2-83,56.94-125.78,70.73-16.83,5.42-19.8,5-32.89,6.36a158.92,158.92,0,0,0-20.19,3c-1.22.24-.59-1.48-2.06-5.52-4.45-12.22-10.59-23.61-22.68-34.32a107.77,107.77,0,0,0-11.37-8.76c.5-.44,1-.89,1.46-1.33l2.21-2.06,2.17-2L200.76,497c2.86-3.22,5.6-6.68,8.21-10.16.66-.87,1.29-1.75,1.93-2.64a20.38,20.38,0,0,0,1.75-3,62,62,0,0,1,2.71-5.77,50.4,50.4,0,0,0-3.93,4.79,18,18,0,0,1-2.09,2.25c-.76.67-1.57,1.35-2.37,2-3.22,2.64-6.48,5.15-9.9,7.54l-12.95,8.94c1.71-2.17,3.43-4.28,5.22-6.31,2.44-2.79,5.06-5.52,7.75-8.23l8.17-8.18,4.05-4.18c.68-.72,1.38-1.48,2-2.32a11.87,11.87,0,0,0,1.71-2.91,6,6,0,0,0,.16-3.14,3,3,0,0,1,.1-2c-.49.25-.69,1.15-.76,2a5,5,0,0,1-.73,2.62,14.39,14.39,0,0,1-4.11,3.54L203,474.75l-9.58,5.76c-3.21,1.94-6.43,3.94-9.61,6.1s-6.3,4.52-9.29,6.85L169.14,499,166,502.23l-3.14,3.13a26,26,0,0,1-5.75,4.55l.47.88c-.42-.2-.85-.39-1.27-.57l.08-.08a55.68,55.68,0,0,0,5.6-7c1.63-2.36,3.08-4.69,4.49-6.91s2.89-4.62,4.28-6.94q1.57-2.66,3.1-5.33c3.53-8,6.65-16.1,9.88-24,1.62-4,3.27-7.89,5-11.78.88-1.95,1.78-3.86,2.73-5.81s1.68-3.93,3-5.34c-1.64,1-2.93,2.76-4.23,4.36s-2.67,3.22-4,4.86c-2.61,3.29-5.14,6.66-7.63,10-5,6.79-9.78,13.62-14.8,20.14q-1.84,3.3-3.77,6.52c-1.34,2.25-2.69,4.42-4.11,6.65s-2.82,4.47-4.22,6.49a43,43,0,0,1-4.38,5.46,24.36,24.36,0,0,1-4.34,3.76c-.64-.21-1.28-.41-1.93-.6a5,5,0,0,1,.47-1.13l1.61-3,3.32-6.15,3.33-6.15c1.15-2.08,2.31-4.25,3.39-6.28.17-2.29.34-4.52.58-6.75.11-2,.84-4.47.95-6.91-2,1.48-4,2.19-6.18,3.58-1.42.85-2.82,1.74-4.2,2.65-1,1.13-1.93,2.27-2.89,3.42-.17.21-.34.41-.5.62l1.5-2.81,1.89-1.23c.29-.36.6-.72.91-1.07a146.73,146.73,0,0,1,15.76-19.41c3-3,6-6,9.2-8.69,1.59-1.35,3.29-2.67,4.95-3.83.74-.49,1.78-.95,2.75-1.47a8.52,8.52,0,0,0,2.84-2.17,7.15,7.15,0,0,1-3,1.41c-1,.28-2,.45-3.06.76a58.58,58.58,0,0,0-5.82,2.5c-3.81,1.85-7.5,4-11.1,6.17a152.61,152.61,0,0,0-20.73,15.33c-1.74,2-3.45,4-5.11,6-1,1.21-2,2.38-3,3.64s-2,2.53-2.89,3.79c-1.87,2.54-3.63,5.08-5.37,7.55a128.44,128.44,0,0,1-10.6,13.75l0,0c-2.59-.19-5.17-.31-7.72-.34.32-.57.65-1.13,1-1.68,1-1.62,2-3.23,3.08-4.78A72.91,72.91,0,0,1,121,472.74c3.06-2.84,6.4-5.58,9.65-8.48,1.62-1.43,3.26-3,4.76-4.45a22.63,22.63,0,0,1,2.32-2c.41-.3.8-.51,1.32-.83a4,4,0,0,0,1.43-1.38,3.42,3.42,0,0,1-1.55,1c-.53.19-1,.3-1.49.49a21.27,21.27,0,0,0-2.81,1.35c-1.82,1.05-3.61,2.09-5.45,3.05-3.68,1.94-7.44,3.73-11.19,5.76a80.53,80.53,0,0,0-20.66,16.4c-1.57,2.23-3.05,4.5-4.46,6.81q-2.61,4.32-4.85,8.78C71.67,501,59.23,505.36,49.2,515.74c-8.41,8.7-10.4,12.67-9.13,24.39,2.08,19.32,13.3,31.66,31.37,44.16C87,595.08,113.72,604,134.34,605.63c9,.7,18.89,1.62,26.72.74,11.38-1.28,20.18-4.82,29.83-9.06a49,49,0,0,0,18.18-13.58c.81-1,.6-1.28,1.21-.5s4.48-1.65,4.43-1.3c-.06.53,10.14-6,7.21-1.21-4.3,7-20,27.92-25.06,34.15-8.31,10.33-14,19.33-22.14,25.4C153.57,656,132,667.67,109.66,680.49c-1.25.72-2.26,1.2-3.63,1.89-1.82-1.15-6.46-4.18-7.88-5.06a160.69,160.69,0,0,1-23.35-18c-5.27-5-9.47-9.79-14.82-10.32-3.66-.36-3.68.78-4.48,3.71-1.22,4.47.86,11.76,3.51,16.41.57,1,2.92,2.75,4.52,3.71a33.6,33.6,0,0,1,5.21,4.27c1.57,1.52.08,1.42,2.77,3.3,5.07,3.56,16.63,5.08,23.74,6.41,1.41.27,5.72,1.64,7.46,1.91,3.59.56,3.26,1.64,7.67-1.17,1.67-1.07,10-6.07,14-8.35,16-8.93,44.27-24.48,55.82-35.29,18.1-16.94,25.87-31.53,38.48-47.8,3.66-4.73,5.09-8.3,7.07-9.56s.42.12-.15,2.07a388.91,388.91,0,0,0-10,42.81,335.8,335.8,0,0,1-8,33.89c-1.79,6.2-5.58,14.9-9.29,22.59-7.71,16-18.14,38.31-25,53.49-3.62,7.95-6.87,15.28-8.42,18.35-2.61,5.17-1.27-.15-3,.23-1,.23-2.83-2.22-3.92-2.6-6-2.08-12.12-2.88-16.44,3.23-5,7-26.39,6.41-30.55,6.61-11.33.52-110,5.23-111,10.27-.73,3.94,56.46,7.23,60.78,7.23,1.62,0,14.25.29,11.51,1.57-1.38.65-6.11.31-1.85,1.35,11.38,2.76,26.76,1.56,42.33,1.41,14.27-.14,11.06.53,3.53,1.31C102,791.9,83,792.6,70.44,800c-1.41.83-.56.76-1.8,1.46,3.26-.15,3-.19,6.75-.31,8.32-.26,16-.44,26.31-.6,32.76-.49,79.28-1.22,108.48-2.16,5.2-.17,7.55-.34,8.52-.45.21-.17,1.24-.13,0,0-.11.1,0,.24.75.46,3.34,1-8.56,2.3-11.29,2.93-17.12,3.92-58.27,10.28-71.49,21.73-2.29,2-5.06,1.68-2.6,2.9,16.22,8,6.2,6.32,37.16,8.7s90.73,1.4,128.42-.34c2.54-.12,13.45-.18,15.37-.39-3.51,0-7.8,0-11.73,0s-8-.07-12-.1c0-3,0-6.06,0-9.08v-9.09c3,0,6.32-.19,9-.16H301c-1.39-.05-29.9-.49-40.13-.24-11.38.28-46.38-.12-47.91-.25-9.72-.82,17-5.29,43.48-10.33,9.54-1.82,32-5.23,40.18-6.67s8.89-1.39,14.26-2.3c.63-.11.93-.16,1.06-.17l.72-.12c-.94,0-.57-.08-1.64-.08-2.4,0-9.3,1.26-11,1.52-2.74.43-13.73,2-10.62,1.22a5.53,5.53,0,0,0,1.6-.4c.65-1.44-.49-6.65.2-7.38,2.73-2.84-3-6.93.19-8.58,1.88-1,2.22-.11,12.59-.2,38.19-.32-72.43-1.83-105.72-2.21-5.15-.06-37.56-.63-47.44-1.08s-34.36-.69-41.12-1.34-30.17.15-27.82-1.16c8.91-5,72.2-.87,91.92-.93,26.21-.08,71.26.19,96.43-3.65,15.11-2.3,12.56-1.28.32-3.16-18.76-2.9-54.52-2.32-74.82-2.41-7.89,0-24.43,1.29-24.31-.89.74-13.08,20.41-47.39,24-55.44,8.59-19,15-31,18.15-41.74,4.75-16.4,5.82-23,8.27-35.35,3-15,4.65-24,8.81-38,.68-2.27,1.75-5.85,2.63-8.73.4-1.3,1.11-3.92,1.66-5.4,2.86-.14,8.47,0,10.76-.12,7.47-.34,11.53,0,18.59-1.48,12.66-2.61,18.16-3.79,32.06-8.53,42.07-14.35,85.7-38.38,120.88-66.3,9.28-7.37,15.77-13.41,22.53-22.15,1.29-1.66,1.3-2.18,2.44-3.71,1.36,0,2.55,0,3.89-.09a42.13,42.13,0,0,0,5.69-.38c10.27-1.19,30.4-1.92,40.34-2.35,22.45-1,41.66-1.35,62.75-4.13,2.71-.36,3.19-.46,5.87-.9,3.27-2.1,10.74-6.8,13.49-8.53,21.25-13.38,41.64-26.49,63.29-37.64,2.77-1.43,3.19-1.56,5.66-2.85,1.61.81,2.8,1.39,4.58,2.18,7.31,3.24,14.73,5.44,22.73,7.77l5.83,1.65c.71-.42,2-.94,2.63-1.37,3.68-2.4,12.45-3.1,15.34-3.4,3.28-.34,9.25,1,9.08-2.14S698.56,421.68,694.74,420.14Zm-531.8,178.1a29.08,29.08,0,0,1-6.2.32c-.89,0-1.77-.15-2.62-.26.58-.72,1.89-2.66,2.35-3.19,4.34-5,.43-15.63,6.18-12,2.82,1.8,3.58,5.89,4.1,8.65C167.53,595.9,166.91,597.48,162.94,598.24Zm16.8-5c-3.38,1.48-6.33,3.34-9.1,2.93-1.09-.17,0-1.78-.26-3.12-.45-2.76-.74-7.79-2.76-10.46-3.51-4.64-8.3-6.93-12.68-1.7-3.12,3.72-.46,8-4,13.78-.68,1.09-1.56,2.5-2.28,3.61-1,0-3-.08-4-.07-12.06,0-29.86-4.13-39.41-6.89-4-1.17-6.66-1.84-7.35-2.45-5.92-2.38-29.75-17-33.3-20.35-4.84-4.54-10-9.9-12.47-15.35-5.45-11.93-6.83-20.89,2.21-31.3C61,514,70.68,511,81.88,508c.79-.21,9.3-.75,12.46-.94,4.26-.26,13.07-.47,17.44,0a160.32,160.32,0,0,1,37,8.94l.39.15c1.11.44,2.2.9,3.24,1.36a152.88,152.88,0,0,1,17.44,9c.24.13.48.28.71.43,14.48,8.9,26.66,20.66,31.9,36.95C208.32,582.27,193,587.41,179.74,593.2ZM287.45,781.58c.13,0,1.17.08.72.25a1.86,1.86,0,0,1-1.39,0C286.3,781.66,287.31,781.58,287.45,781.58ZM422.9,485.3C400.39,506.89,367,527,338.08,541.24c-10.59,5.21-23.15,12.8-31.75,14.26-2.15.36,1.3-1,5-2.79,25.69-12.63,60.27-35.89,82.52-51,14.32-9.71,25.43-20.07,34.51-22.27C431.21,478.77,426.9,481.46,422.9,485.3Z"/><path class="cls-3" d="M78.49,577.31l-.26-.21Z"/></g></g></svg>