<svg xmlns="http://www.w3.org/2000/svg" viewBox="0 0 861.01 1026.39"><defs><style>.cls-1{fill:#010101;}.cls-2{fill:#2a4b9b;}</style></defs><g id="Ebene_2" data-name="Ebene 2"><g id="Ebene_2-2" data-name="Ebene 2"><path class="cls-1" d="M401.21,59c8.92-3,18.77-9,23.38-17.33,1.79-3.23,1.53-4.63,3.65-6.62,1.56-1.46,1.09-1.18,2.5.2s.71,3,2,5.1c3.27,5.53,4.64,7.45,10.33,13a68,68,0,0,1,13.32,19.14c2.21,4.59,8.57,14,12.25,20.27,17,28.89,48.08,56.05,70.46,78.63,34.32,34.63,67.61,63.15,106.34,89.06,6.47,4.32,9.91,5.37,13.67,7.84s4.24,4.16,6.17,3.56c5.83-1.81,6.37-6.36,4.06-11.19-1.3-2.7-2.89-1-6.15-2.72C631.41,241,613,215.11,602.62,179.43c-2-6.7-5.28-30.57-3.92-37.49,6.42-32.77,12-64.62,42.94-81.36,43.77-23.67,65.4,4.13,84,42.4a79.65,79.65,0,0,1,5.25,16.4c1.65,9.25,4,20.33,4.78,30.56s3,21.43,1.48,31.9c-2.78,19.38-3.18,36.16-8.42,55.91-6.31,23.74-16.17,25-40,24.46-2,0-2.51,3.58-2,5.73.15.64-1.37,3.78.74,4.31.14.3-.49,0,.21.43,8.09,3.88,30.81,13.58,37.86,16.41,24.33,9.75,64.71,26.51,81.25,34.58,28.8,14.06,35.52,19.09,50.19,36.73,6.09,7.31,3.87,5.49,2.62,12.32-4.21,23-10.62,37-29.27,55.2-18.1,17.63-50,31.47-74.32,41-17,6.65-33.52,12.75-47.65,22.08-5,3.28-5.26,5.31-7.9,9.75-3.67,6.17-5,9.43-3,17.14,1.16,4.48-.25,8.21-2.41,14.27-5.24,14.67-10.67,33.7-18.44,48.19.41-25.56,1-51.53,1.27-77.06,5.95-4,8.17-4.34,13.44-10.69,12.66-15.27,37.57-24.49,55.57-31.5,14.52-5.65,35.17-14.35,45.69-19.94,23.85-12.68,40.56-26.43,50.93-48.46,4.5-9.57,6.43-15.11,5.64-24.48-.3-3.6-.61-2.77-4.44-6.67-20.78-21.14-49.14-31.51-79.24-44.07-6.35-2.65-34.05-14.16-44.24-18.45s-24.36-10.2-33.62-14c-4.2-1.73-2.69-1.08-5.93-2.38.37-.26-.24.06.33-.73-3.46,4.55,3.93-5-2,2.66s-12.21,11.11-14.85,29c-1.7,11.54-4.82,23.89-4.35,43,.58,23.8,2.27,60.45,5.72,86.92,3.27,25.06,5.8,57.83,6.63,79.61,1,26.33-1.75,36-4.14,58.77-.26,2.42-1.77,1.8-1.81,4.39,1.8,1,4.41,6.15,5.6,7.67,37.7,47.92,72.22,104.56,89.65,161.5,6.6,21.56,5.95,30,8.83,46.89s-.84,28-.7,41.43c0,4.7-3.08,9.58-1.39,9.9,19.4,3.7,36.26-4.74,55.24-7.54,1.4-.21,1.66,2.74,2,5.11.47,3.13,4.32,7.66,6,11.36,2,4.33-1.64,8.21-6.13,9.51-2.15.62-3.12,1.44-1.81,2.83,4.73,5-63.09,7.23-69.74,7.57-1.51.07-16.95-4.35-14.82,2s21,4,25.49,4.38c10.83.89,43,4.79,8.64,3.8-6.07-.17-32.6-1.93-43.85-2.67s-41.16-2.56-50.11-3.21c-31.33-2.3-57.67-6.65-86.16-3.59-7.58.82,10.9,2.16,14.47,2.4,5.34.37,14.38,1.3,22.82,1.27A494.52,494.52,0,0,1,686.81,890c5.29.6,19.12,1.53,23.64,1.85,17.7,1.28,58.61-3.53,68.65,9.17,4.13,5.23-9.88,3.13-18.09,3.71-13.58,1-38.88,3.12-58,3.46-4.74.08-25.24,1.13-31.94,1.67s-29.08,5.27-31.36,5.63c-13.92,2.18-66.63-.31-63.75,14.84.56,3,13,1.5,17.41,1.62,10.72.29,30.49,3.15,40,4.72,11.38,1.87,15,4.12,22.83,8.92,2.76,1.71-.2,1.49,1.14,2.11a34.37,34.37,0,0,0,4,1.18c1.31.43,3,.73,3.68,1.78,1.1,1.64-.33,1.83-1.45,2.66a4.91,4.91,0,0,0-2.32,2.8,8.19,8.19,0,0,1-2.24,3.82c-.58.57-1.53,1.86-2.86,2.08-4.41.22-16,.61-19.17.6a262.49,262.49,0,0,0-30.3,1.9c-5.29.61-6.09-.17-8.61,2.32s7.51-.28,6.87,0c-1.76.85-6.23,1.2-11.93,2-12.21,1.64-34.22,2.26-43.18,15.31-5.62,8.18,1.05,13.47,4.55,22.25,1.71,4.31,17,5.92.74,11.12s-33.42,7.69-50.71,8.9c-2.08.14-2-1.71-3.54-4.12s-5.43-8.81-7.46-11.58-8.5-8.74-7-11.59c5.35-10,4.95-11,16.23-16.83,14.79-7.7,37.63-13.4,54.75-18.55,8.38-2.53-.74-3.3-5.94-3.09a119.48,119.48,0,0,1-14.59-2,90.25,90.25,0,0,0-15.76-1.44c-2.58.13-10.42,1.39-9.62-.3,2.42-5.07,5.43-3.76,11.45-6,8.3-3.13,22.82-.95,31.81-5.27s7.84.4-9.8-4.3c-46-12.22-1.78-18.45,23.07-21.69,7.3-1,39.1-9.18,50.65-10.27,2.75-.26,13.12-.4,5.48-2.52-18.93-5.25-45.61-6.21-63.33-7-9.1-.42-9.26-.47-14-1.09s-2.3-1.07-5.69-1.57-11.25-1.52-13.79-1.75c-13.79-1.23-47.31.61-50.93-13.93-1.59-6.41,17.7-3.55,22-4.29,1-.18,8-.46,9.66-.81,0-1-1.69-2-2.25-2.49-1.24-1-3.42-2.73-3.07-4.21,1-4.29,3-6.26,6.74-8.3,4.77-2.63,5.8-6.12,11.53-8.65s12.58-.54,20.08,1.49c3.65,1,14.34,3.49,18.88,1.91,6.2-2.15,9.94,4.75,13.79-2.73,11.94-23.2,11.88-42,13.61-70S592,719.89,600.18,691a390.56,390.56,0,0,1,43.27-98.71,42.41,42.41,0,0,1,5-6.87c-.52-2.29-.85-.37-1.49-2.69-7.54-27.21-9.24-45.65-14.11-77.32-2.63-17.11-2.35-63.35-1.5-81.18,2.22-46.46,6.86-86.29,21.88-126.18,7.21-19.16,8.36-2.45,3.48-19.62-2.28-8-10.12-5.7-17.66-11.54-19.35-15-37-23.53-57.48-41.93C544.3,191.36,503.76,150.35,471.16,111a60.15,60.15,0,0,0-17-14.81c-15-9.08-33.2-14.67-48-20.52-7.73-3-14.26-1.73-16.67-8.65C386.6,58.93,395.78,60.82,401.21,59ZM721.09,234.47c5.49-13.23,3.94-28.74,6.15-43.27,2-13.19,1-28.22-.57-41.8-2.91-24.51-9.83-50.46-25.53-69.21-10.92-13-20-15.62-35.53-19.13-5.71-1.28-8.45-.47-15.1,3.07-9.48,5-18.93,11.33-25.67,22.86-4.77,8.15-11.65,20.47-13.47,31.44-4.72,28.45-1.58,55.9,8.27,83.38a68,68,0,0,0,7.75,14.06C647.17,241.09,702,280.47,721.09,234.47Zm-4.78,650.08c5.61.05,6.73-1.13-1.73-3.1-6.53-1.52-18-4.93-19.62-2.26-2.08,3.47-.3,3.15-3.08,4.72C688.51,885.81,711.56,884.5,716.31,884.55ZM607,703.35c-6.19,25.22-9.6,58.82-10.76,84.1-1.13,24.52-2.64,44.31-10.3,65-2.07,5.59-2.32,3.34-4,7.11s-3.41,4.32-5.77,7.54c-1.08,1.47-3.74,3.39-4.42,5.3,9.13-.07,23.9-.12,32.75-.25,44.43-.69,94.15-.16,135.85.39,17.37.23,11.47.62,23.48.31,5.68-.15,2.24-.24,6.9-.23-2.19-.36-4.7-.13-5.3-2.49-1.47-5.8-6-4.14-6.13-12,0-2.56,1.89-5.34,1.77-11.22-.33-16,5.18-22.59,2.29-42.3-6-41-18.25-79.21-39.82-119-13.84-25.53-35.41-62.74-55.31-86.06-4.11-4.82-3.17-8.64-8.72-7.48s-4.27,1-7.84,6.78C631.75,631.16,616.38,665.05,607,703.35Zm52.17-225.47c-.78-8.1-3.22-33.44-4.2-44.87s-2.43-26.6-3.53-37.14c-.5-4.77-.54-4-.93-7.9-.13,3.8-.17,4.73-.39,8.78-.48,8.85-.45,15.49-1,26-1.17,24.32-.15,60.8,1.65,83,2.21,27.44,4.75,40,8.38,63.82.31,2,.71,1.32,1,3.43.2-2.55.71-2,1-4.59C664.37,537.46,662.36,511.09,659.16,477.88Z"/><path class="cls-1" d="M687.35,113c5.15.1,8.37,2.89,10.5,7.43,4.85,10.34,5,20.57-2,30.1-5,6.76-13.15,8.68-20.34,3.85s-10.1-12.19-9.09-21.1C667.77,121.49,674.9,112.78,687.35,113Zm-6.89,9.81c-5.91,8.54-8.88,20.94,3.81,24.32,5.62,1.49,8.9-7.5,8.54-12.79s-2.22-11.67-8.48-13.19A4,4,0,0,0,680.46,122.81Z"/><path class="cls-1" d="M645.42,112.66c10.47,2.34,13.32,10.34,14.64,19.81,1,7.06-2.15,13.25-6,18.54a13,13,0,0,1-8,5.22c-3.69,1-5.19,1.39-9-.2a21.43,21.43,0,0,1-11-10.83c-1.35-2.77-1.59-7.63-1.48-11s.58-8.4,2.22-10.94C631.31,116.37,637.28,110.85,645.42,112.66Zm-5.83,9.78c-6.88,5.69-7.53,15.21-2.41,22.36,3,4.22,6.67,4,9.91.1,5.42-6.57,5.61-16-.49-22.05C643.84,120.11,642.54,120,639.59,122.44Z"/><path class="cls-1" d="M632.55,179.67c.48.76-.35,4.6.1,7.4,1,6.52,1.61,15,7.81,20.22,9,7.62,19,13,31.23,9,10.78-3.59,13.84-14.7,16.56-24.49.76-2.73.84-6.27,1.4-8.07.72-2.33.48-3,2.44-1.93s2.28,2.13,1.47,5.39c-2.81,11.34-2.93,27.42-17,32-24.55,8-35.18-.61-47.24-22-2.83-5-1.68-12.25-.19-17C630,177.36,630.8,176.92,632.55,179.67Z"/><path class="cls-1" d="M702.17,276.19A.67.67,0,0,1,702,276"/><path class="cls-2" d="M119.47,145.07a8.54,8.54,0,0,1-8.54-8.54V128A8.54,8.54,0,0,1,128,128v8.53A8.53,8.53,0,0,1,119.47,145.07Z"/><path class="cls-2" d="M128,179.2a8.54,8.54,0,0,1-17.07,0v-8.53a8.54,8.54,0,1,1,17.07,0Z"/><path class="cls-2" d="M128,221.87a8.54,8.54,0,0,1-17.07,0v-8.54a8.54,8.54,0,0,1,17.07,0Z"/><path class="cls-2" d="M153.6,145.07a8.53,8.53,0,0,1-8.53-8.54V128a8.53,8.53,0,0,1,17.06,0v8.53A8.53,8.53,0,0,1,153.6,145.07Z"/><path class="cls-2" d="M153.6,187.73a8.53,8.53,0,0,1-8.53-8.53v-8.53a8.53,8.53,0,1,1,17.06,0v8.53A8.53,8.53,0,0,1,153.6,187.73Z"/><path class="cls-2" d="M153.6,230.4a8.53,8.53,0,0,1-8.53-8.53v-8.54a8.53,8.53,0,0,1,17.06,0v8.54A8.53,8.53,0,0,1,153.6,230.4Z"/><path class="cls-2" d="M85.33,145.07a8.53,8.53,0,0,1-8.53-8.54V128a8.54,8.54,0,0,1,17.07,0v8.53A8.54,8.54,0,0,1,85.33,145.07Z"/><path class="cls-2" d="M93.87,179.2a8.54,8.54,0,0,1-17.07,0v-8.53a8.54,8.54,0,1,1,17.07,0Z"/><path class="cls-2" d="M93.87,221.87a8.54,8.54,0,0,1-17.07,0v-8.54a8.54,8.54,0,0,1,17.07,0Z"/><path class="cls-2" d="M11.52,256H25.6V68.27A68.26,68.26,0,0,1,93.87,0h25.6A8.53,8.53,0,0,1,128,8.53V52.05a42.67,42.67,0,0,1,34.13,41.82,8.53,8.53,0,0,1-8.53,8.53H85.33a8.53,8.53,0,0,1-8.53-8.53,42.68,42.68,0,0,1,34.13-41.82v-35H93.87a51.2,51.2,0,0,0-51.2,51.2V256H500.48A11.52,11.52,0,0,1,512,267.52v11.09a11.52,11.52,0,0,1-11.52,11.52h-489A11.52,11.52,0,0,1,0,278.61V267.52A11.52,11.52,0,0,1,11.52,256Z"/><path class="cls-2" d="M30.29,307.2H481.71a4.35,4.35,0,0,1,4.35,4.35v.17c-3.33,60.76-29.7,123.65-68.27,143a34.13,34.13,0,1,1-54.36,6.06H148.82a33.17,33.17,0,0,1,3,27.65,34.13,34.13,0,1,1-57.35-34.14c-38.82-19.37-65.19-82.26-68.26-143A4.34,4.34,0,0,1,30.29,307.2Z"/></g></g></svg>