<?xml version="1.0" encoding="utf-8"?>
<!-- Generator: Adobe Illustrator 25.2.2, SVG Export Plug-In . SVG Version: 6.00 Build 0)  -->
<svg version="1.1" id="Ebene_1" xmlns="http://www.w3.org/2000/svg" xmlns:xlink="http://www.w3.org/1999/xlink" x="0px" y="0px"
	 viewBox="0 0 700 700" style="enable-background:new 0 0 700 700;" xml:space="preserve">
<style type="text/css">
	.st0{fill:#C6D436;}
	.st1{fill:none;stroke:#C6D436;stroke-miterlimit:10;}
	.st2{fill:#FFEA04;}
	.st3{fill:#EE7919;}
	.st4{fill:#2A4B9A;}
	.st5{fill:#FFFFFF;}
</style>
<g>
	<g>
		
			<image style="overflow:visible;opacity:0.75;" width="638" height="654" xlink:href="9DF028FB76C233DC.png"  transform="matrix(1 0 0 1 24 30)">
		</image>
		<g>
			<rect x="53" y="44.9" class="st0" width="593.9" height="610.3"/>
			<rect x="53" y="44.9" class="st1" width="593.9" height="610.3"/>
		</g>
	</g>
	<g>
		<polygon class="st2" points="551.4,225.4 409.1,225.4 409.1,153.6 		"/>
		<polygon class="st3" points="148.6,225.4 402.7,225.4 402.7,100.8 		"/>
		<g>
			
				<image style="overflow:visible;opacity:0.75;" width="446" height="385" xlink:href="9DF028FB76C233DD.png"  transform="matrix(1 0 0 1 120 226)">
			</image>
			<g>
				<g>
					<path class="st4" d="M148.6,240.3v342.2h402.8V240.3H148.6z M541.2,572H158.8V250.8h382.4V572z"/>
					<rect x="158.8" y="250.8" class="st4" width="382.4" height="321.2"/>
				</g>
			</g>
		</g>
		<g>
			<g>
				<g>
					<path class="st5" d="M281.2,384.6c0,20.2-14.9,31.9-43.8,31.9h-54.5V298.4h51.3c26.3,0,41,11.5,41,30.5
						c0,12.8-6.4,21.8-15.3,26.3C272.7,359,281.2,368.9,281.2,384.6z M199.2,312.1v37.8h33.5c16.7,0,26.1-6.4,26.1-18.9
						c0-12.5-9.5-18.9-26.1-18.9H199.2z M264.7,383.3c0-13.7-9.8-19.7-27.9-19.7h-37.5v39.3h37.5
						C254.9,402.8,264.7,396.9,264.7,383.3z"/>
					<path class="st5" d="M237.4,418.6h-56.6V296.3h53.3c26.9,0,43,12.2,43,32.6c0,10.9-4.5,20.1-12.5,25.8
						c11.9,5.1,18.6,15.7,18.6,29.9C283.2,406.5,267,418.6,237.4,418.6z M185,414.4h52.5c19,0,41.7-5.2,41.7-29.8
						c0-13.9-7.1-23.6-19.9-27.3l-5.2-1.5l4.8-2.4c9.2-4.6,14.2-13.3,14.2-24.4c0-18.1-14.2-28.4-38.9-28.4H185V414.4z M236.8,405
						h-39.6v-43.5h39.6c19.9,0,30,7.3,30,21.8C266.7,397.7,256.7,405,236.8,405z M201.3,400.7h35.5c23.2,0,25.9-10,25.9-17.5
						c0-7.6-2.7-17.6-25.9-17.6h-35.5V400.7z M232.7,352h-35.5v-42h35.5c18.2,0,28.2,7.5,28.2,21C260.9,344.5,250.9,352,232.7,352z
						 M201.3,347.8h31.4c11,0,24.1-2.9,24.1-16.8c0-13.9-13.1-16.8-24.1-16.8h-31.4V347.8z"/>
				</g>
				<g>
					<path class="st5" d="M404.8,298.4v118.1h-16.3v-52.6h-65.6v52.6h-16.3V298.4h16.3v50.8h65.6v-50.8H404.8z"/>
					<path class="st5" d="M406.8,418.6h-20.4V366h-61.5v52.6h-20.4V296.3h20.4v50.8h61.5v-50.8h20.4V418.6z M390.5,414.4h12.2V300.5
						h-12.2v50.8h-69.7v-50.8h-12.2v113.9h12.2v-52.6h69.7V414.4z"/>
				</g>
				<g>
					<path class="st5" d="M461.7,313.1h-39.2v-14.7h94.5v14.7h-39.2v103.4h-16.2V313.1z"/>
					<path class="st5" d="M479.9,418.6h-20.2V315.2h-39.2v-18.9h98.6v18.9h-39.2V418.6z M463.8,414.4h12.1V311H515v-10.5h-90.4V311
						h39.2V414.4z"/>
				</g>
			</g>
			<g>
				<path class="st5" d="M231.6,463.5v44.3h-4.3v-35.4l-16.8,29.8h-2.1l-16.8-29.6v35.2h-4.3v-44.3h3.7l18.6,32.8l18.4-32.8H231.6z"
					/>
				<path class="st5" d="M273.7,474.5v33.3h-4.2v-6.1c-2.3,4-6.4,6.4-11.6,6.4c-8.2,0-13.6-4.7-13.6-14.3v-19.3h4.3v18.8
					c0,7.1,3.6,10.7,9.7,10.7c6.7,0,11-4.5,11-12.1v-17.5H273.7z"/>
				<path class="st5" d="M302.8,505.8c-1.7,1.6-4.3,2.3-6.8,2.3c-6.1,0-9.4-3.5-9.4-9.7v-20.1h-5.8v-3.8h5.8v-7.3h4.3v7.3h9.8v3.8
					H291v19.9c0,3.9,2,6.1,5.6,6.1c1.8,0,3.6-0.6,4.8-1.7L302.8,505.8z"/>
				<path class="st5" d="M333.4,504v3.7h-26.2v-3l20.3-26.5h-19.9v-3.8h25.5v3L312.8,504H333.4z"/>
				<path class="st5" d="M337.5,504l2-3.5c2.6,2.1,6.9,3.7,11.4,3.7c6.1,0,8.6-2.1,8.6-5.4c0-8.7-20.9-1.8-20.9-15
					c0-5.4,4.5-9.5,12.7-9.5c4.2,0,8.7,1.2,11.4,3.1l-1.9,3.6c-2.8-2-6.2-2.8-9.5-2.8c-5.8,0-8.4,2.3-8.4,5.5c0,9,20.9,2.2,20.9,15
					c0,5.8-4.9,9.5-13.3,9.5C345.3,508.1,340.2,506.3,337.5,504z"/>
				<path class="st5" d="M368.7,491.1c0-9.9,7-16.9,16.6-16.9c5.4,0,10,2.2,12.6,6.6l-3.2,2.3c-2.2-3.4-5.6-4.9-9.4-4.9
					c-7,0-12.2,5.2-12.2,13c0,7.8,5.1,13,12.2,13c3.7,0,7.2-1.5,9.4-4.9l3.2,2.3c-2.6,4.3-7.2,6.6-12.6,6.6
					C375.7,508.1,368.7,501.1,368.7,491.1z"/>
				<path class="st5" d="M435.5,488.5v19.3h-4.3v-18.8c0-7-3.6-10.6-9.7-10.6c-6.9,0-11.3,4.4-11.3,12v17.5h-4.3v-46.9h4.3v19.5
					c2.4-3.9,6.6-6.1,12.1-6.1C430.2,474.3,435.5,478.9,435.5,488.5z"/>
				<path class="st5" d="M475.5,492.5h-26.9c0.5,7,5.6,11.6,12.7,11.6c3.9,0,7.4-1.5,9.9-4.4l2.4,2.9c-2.9,3.5-7.3,5.4-12.4,5.4
					c-10,0-16.9-7.1-16.9-17s6.7-16.9,15.7-16.9c9.1,0,15.6,6.9,15.6,16.9C475.6,491.5,475.5,492,475.5,492.5z M448.6,489.2h22.8
					c-0.6-6.5-5.1-11.1-11.4-11.1C453.7,478.1,449.1,482.7,448.6,489.2z"/>
				<path class="st5" d="M514.1,488.5v19.3h-4.3v-18.8c0-7-3.6-10.6-9.7-10.6c-6.9,0-11.3,4.4-11.3,12v17.5h-4.3v-33.3h4.2v6.1
					c2.3-4,6.7-6.4,12.2-6.4C508.7,474.3,514.1,478.9,514.1,488.5z"/>
			</g>
		</g>
	</g>
</g>
</svg>
