<svg xmlns="http://www.w3.org/2000/svg" viewBox="0 0 345.98 325.98"><defs><style>.cls-1{fill:#1d1d1b;}</style></defs><g id="Ebene_2" data-name="Ebene 2"><g id="Ebene_2-2" data-name="Ebene 2"><path class="cls-1" d="M304,200.11A19.88,19.88,0,0,1,323.88,220h0v4.16A19.91,19.91,0,0,1,304,244.05H42.58a42,42,0,0,0-42,42h22.1V284H.61a42,42,0,0,0,42,42H334.69a11.05,11.05,0,0,0,0-22.1H42.63A19.91,19.91,0,0,1,22.71,284H.61v2.1h22.1a19.9,19.9,0,0,1,19.87-19.92H304a42,42,0,0,0,42-42V220a42,42,0,0,0-42-42h-293a11.05,11.05,0,0,0,0,22.1ZM36.75,22.29a27.69,27.69,0,0,1,5.08,4c8.92,8.9,10.66,21.67-.7,42.19C24.82,98,25,121.21,36.43,137.33a33.33,33.33,0,0,0,9.21,9.1A11.06,11.06,0,1,0,57.23,127.6c.14.09,0,0-.36-.33a15.6,15.6,0,0,1-2.41-2.72c-6.27-8.84-6.37-23,6-45.36,16.11-29.11,12.9-52.63-3-68.53a49.75,49.75,0,0,0-9.1-7.19A38.46,38.46,0,0,0,43.64,1,11.05,11.05,0,0,0,35,21.31a18.5,18.5,0,0,1,1.74,1Zm123.77,0a27.62,27.62,0,0,1,5.07,4c8.92,8.9,10.66,21.67-.69,42.19-16.31,29.48-16.14,52.72-4.71,68.84a33.34,33.34,0,0,0,9.22,9.1A11.05,11.05,0,0,0,181,127.61c.14.08,0,0-.37-.34a16,16,0,0,1-2.41-2.72c-6.26-8.84-6.37-23,6-45.36,16.1-29.11,12.89-52.63-3-68.53a49.82,49.82,0,0,0-9.11-7.19A37.05,37.05,0,0,0,167.4,1a11,11,0,0,0-9.05,20.16,3.25,3.25,0,0,0,.43.18,19.85,19.85,0,0,1,1.74,1Zm132.6,0a28,28,0,0,1,5.08,4c8.91,8.9,10.66,21.67-.7,42.19-16.31,29.48-16.13,52.72-4.7,68.84a33.33,33.33,0,0,0,9.21,9.1,11.05,11.05,0,0,0,11.59-18.82c.14.08,0,0-.36-.34a15.2,15.2,0,0,1-2.41-2.72c-6.27-8.84-6.38-23,6-45.36,16.11-29.11,12.9-52.63-3-68.53a49.75,49.75,0,0,0-9.1-7.19A38.46,38.46,0,0,0,300,1,11.05,11.05,0,1,0,291,21.14l.42.17a18.5,18.5,0,0,1,1.74,1Z"/></g></g></svg>