<svg xmlns="http://www.w3.org/2000/svg" viewBox="0 0 387.77 490.15"><defs><style>.cls-1{fill:#1d1d1b;}</style></defs><g id="Ebene_2" data-name="Ebene 2"><g id="Ebene_2-2" data-name="Ebene 2"><path class="cls-1" d="M70.57,117.92A7.1,7.1,0,0,1,80.19,115h0q51.61,27.63,84.1,58.39c.16-.37.32-.74.46-1.11a65.92,65.92,0,0,0-14-68.83C135.64,88,112,79.51,82.45,79A193.4,193.4,0,0,0,4.34,94.26,7.11,7.11,0,0,0,3.58,107a77.5,77.5,0,0,1,33.3,38.94c1.66,4.34,2.94,8.87,4.3,13.66,1,3.55,2.06,7.24,3.28,10.85a69.5,69.5,0,0,0,7.78,16.63c11.09,16.74,29.43,26.24,50,26.24a69,69,0,0,0,54.83-27.17q-31.44-30.63-83.62-58.59a7.11,7.11,0,0,1-2.91-9.62Z"/><path class="cls-1" d="M387.69,17.71a7.11,7.11,0,0,0-4.86-5.7A253.4,253.4,0,0,0,279.11,1.4c-38.26,4.11-67.81,17.76-85.45,39.49a84.83,84.83,0,0,0-9.95,89.83A77.06,77.06,0,0,0,194.8,147.2q1.95-5.74,4.29-11.65c21.34-53.35,58.67-87.13,108-97.7a7.11,7.11,0,0,1,3,13.91c-45,9.64-77.79,39.48-97.59,88.7-2.38,5.93-4.42,11.8-6.17,17.49a89.09,89.09,0,0,0,52.88,18.38h1.49c29.79,0,55.48-14.76,68.91-39.69a90.2,90.2,0,0,0,8.05-22.27c1.15-4.86,2.08-9.8,3-14.58,1.23-6.52,2.39-12.68,4.07-18.69A104.84,104.84,0,0,1,384.74,24.6a7.13,7.13,0,0,0,2.95-6.89Z"/><path class="cls-1" d="M194.8,125.35a265.46,265.46,0,0,0-11.17,46.78,227.88,227.88,0,0,0-19.32-20.59,59.6,59.6,0,0,1-7.21,12.75,191.7,191.7,0,0,1,25.06,29.49,7,7,0,0,0,1.81,2.71,123.9,123.9,0,0,1,18.26,43.91c7.25,37.51-5.9,77.81-39,119.9a59.19,59.19,0,0,0-79.75-18.59L26.66,375.46a7.1,7.1,0,0,0-2.48,9.74l11.45,19.26L7.91,420.93A7.11,7.11,0,0,0,15,433.24l.14-.08,27.71-16.48,22.89,38.51L38.07,471.67a7.11,7.11,0,1,0,7.27,12.22l27.71-16.47,11.44,19.25a7.11,7.11,0,0,0,9.75,2.48L151,455.41a59.19,59.19,0,0,0,20.61-81l-.64-1.08c38.31-47,53.53-92.57,45.21-135.61a137.6,137.6,0,0,0-20.11-48.63,249.49,249.49,0,0,1,10.19-53,82.2,82.2,0,0,1-11.47-10.75Z"/></g></g></svg>