<svg xmlns="http://www.w3.org/2000/svg" viewBox="0 0 255.12 340.16"><defs><style>.cls-1{fill:#1d1d1b;}</style></defs><g id="Ebene_2" data-name="Ebene 2"><g id="Ebene_2-2" data-name="Ebene 2"><path class="cls-1" d="M254.39,199.16c-3.9-50.73-27.52-82.52-48.35-110.58-19.3-26-36-48.4-36-81.48A7.11,7.11,0,0,0,166.23.79a7,7,0,0,0-7.36.54c-31.3,22.4-57.41,60.14-66.53,96.15-6.33,25.07-7.17,53.26-7.29,71.87-28.9-6.17-35.44-49.4-35.51-49.87a7.16,7.16,0,0,0-3.69-5.26,7.06,7.06,0,0,0-6.42-.12c-1.52.74-37.2,18.87-39.28,91.26C0,207.77,0,210.18,0,212.6c0,70.32,57.23,127.55,127.56,127.55a1.31,1.31,0,0,0,.28,0h.09c70.16-.2,127.19-57.35,127.19-127.55C255.12,209.06,254.39,199.16,254.39,199.16ZM127.56,326C104.11,326,85,305.66,85,280.68c0-.85,0-1.71,0-2.76.29-10.53,2.29-17.72,4.48-22.5,4.11,8.83,11.46,16.94,23.4,16.94a7.08,7.08,0,0,0,7.09-7.08c0-10.09.21-21.73,2.72-32.24,2.23-9.31,7.58-19.22,14.34-27.16,3,10.31,8.88,18.65,14.61,26.8,8.2,11.65,16.68,23.7,18.17,44.25.09,1.21.18,2.44.18,3.75C170.08,305.66,151,326,127.56,326Z"/></g></g></svg>