<svg xmlns="http://www.w3.org/2000/svg" viewBox="0 0 388.04 340.16"><defs><style>.cls-1{fill:#1d1d1b;}</style></defs><g id="Ebene_2" data-name="Ebene 2"><g id="Ebene_2-2" data-name="Ebene 2"><path class="cls-1" d="M372.73,154.77H322.65l17.06-29.54a15.31,15.31,0,1,0-26.51-15.31l-17.06,29.54L271.59,97h34.13a15.31,15.31,0,0,0,0-30.62H271.59l25-43.37a15.3,15.3,0,1,0-26.51-15.3L245.08,51,228,21.47A15.31,15.31,0,0,0,201.5,36.78l17.07,29.55h-49.1l17.06-29.55A15.31,15.31,0,0,0,160,21.47L143,51l-25-43.36A15.3,15.3,0,1,0,91.41,23l25,43.37H82.32a15.31,15.31,0,0,0,0,30.62h34.12L91.9,139.46,74.84,109.92a15.31,15.31,0,0,0-26.52,15.31l17.06,29.54H15.31a15.31,15.31,0,0,0,0,30.62H65.38L48.32,214.94a15.31,15.31,0,0,0,26.52,15.31L91.9,200.69l24.54,42.52H82.32a15.31,15.31,0,0,0,0,30.62h34.13l-25,43.36a15.31,15.31,0,1,0,26.51,15.31l25-43.37L160,318.68a15.31,15.31,0,0,0,26.51-15.31l-17.06-29.55h49.09L201.5,303.37A15.31,15.31,0,1,0,228,318.68l17.07-29.55,25,43.37a15.31,15.31,0,1,0,26.51-15.31l-25-43.36h34.12a15.31,15.31,0,1,0,0-30.62H271.59l24.54-42.52,17.06,29.56a15.31,15.31,0,0,0,26.52-15.31l-17.06-29.55h50.08a15.31,15.31,0,1,0,0-30.62ZM236.24,243.21H151.8l-42.23-73.13L151.8,97h84.44l42.22,73.13Z"/></g></g></svg>