<svg xmlns="http://www.w3.org/2000/svg" viewBox="0 0 339.91 325.98"><defs><style>.cls-1{fill:#1d1d1b;}</style></defs><g id="Ebene_2" data-name="Ebene 2"><g id="Ebene_2-2" data-name="Ebene 2"><path class="cls-1" d="M133.47,130.49a55.77,55.77,0,0,1,31.27-10.92c-2.59-45.62,31.84-66.4,53.39-79.3a72.7,72.7,0,0,0,17.44-12.43A51.48,51.48,0,0,0,231.45,23C214.12,5.66,183.28-2.67,148.82.76c-33.29,3.29-62.55,17-74.53,35C66.54,47.43,78.5,78.34,133.47,130.49Z"/><path class="cls-1" d="M91.79,326c13.61.5,34.86-24.87,52.43-98.57a56.66,56.66,0,0,1-25-21.57c-38.14,24.92-73.34,5.53-95.3-6.67a84.43,84.43,0,0,0-19.64-8.91,43.42,43.42,0,0,0-2.2,6.06c-6.31,23.66,2,54.61,22.22,82.76C43.8,306.2,70.28,324.61,91.79,326Z"/><path class="cls-1" d="M258.39,287.94a72,72,0,0,0,2.08,21.39,48.41,48.41,0,0,0,6.32-1.15c23.69-6.38,46.33-29,60.58-60.6,13.74-30.43,16.44-62.57,6.88-81.88-5.93-12-38.86-17.69-111.68,3.94a54.86,54.86,0,0,1,.62,6.13,55.76,55.76,0,0,1-6.76,26.2C257.19,222.57,258,262.81,258.39,287.94Z"/><path class="cls-1" d="M198.46,175.77a31.69,31.69,0,1,1-31.69-31.68A31.69,31.69,0,0,1,198.46,175.77Z"/></g></g></svg>