<svg xmlns="http://www.w3.org/2000/svg" viewBox="0 0 425.2 425.2"><defs><style>.cls-1{fill:#1d1d1b;}</style></defs><g id="Ebene_2" data-name="Ebene 2"><g id="Ebene_2-2" data-name="Ebene 2"><path class="cls-1" d="M93.41,251.68a12.45,12.45,0,0,0-11.11,6.84l-37,73.29H200.14V251.68Z"/><path class="cls-1" d="M342.9,258.52a12.47,12.47,0,0,0-11.12-6.84H225.05v80.13H379.92Z"/><path class="cls-1" d="M423.85,407.12,392.5,345.07H225.05V425.2H412.73A12.47,12.47,0,0,0,423.85,407.12Z"/><path class="cls-1" d="M32.69,345.07,1.35,407.12A12.47,12.47,0,0,0,12.47,425.2H200.14V345.07Z"/><path class="cls-1" d="M212.6,64a45.68,45.68,0,1,0,45.67,45.68A45.73,45.73,0,0,0,212.6,64Z"/><path class="cls-1" d="M212.6,0a12.46,12.46,0,0,0-12.46,12.46V39.87a12.46,12.46,0,0,0,24.91,0V12.46A12.45,12.45,0,0,0,212.6,0Z"/><path class="cls-1" d="M212.6,166.94a12.45,12.45,0,0,0-12.46,12.45V206.8a12.46,12.46,0,1,0,24.91,0V179.39A12.44,12.44,0,0,0,212.6,166.94Z"/><path class="cls-1" d="M172.08,51.49,152.7,32.11a12.46,12.46,0,1,0-17.62,17.62l19.38,19.38a12.46,12.46,0,0,0,17.62-17.62Z"/><path class="cls-1" d="M290.11,169.53l-19.38-19.38a12.46,12.46,0,0,0-17.61,17.62l19.38,19.38a12.46,12.46,0,0,0,17.61-17.62Z"/><path class="cls-1" d="M142.84,97.17H115.43a12.46,12.46,0,0,0,0,24.92h27.41a12.46,12.46,0,1,0,0-24.92Z"/><path class="cls-1" d="M309.77,97.17H282.36a12.46,12.46,0,0,0,0,24.92h27.41a12.46,12.46,0,0,0,0-24.92Z"/><path class="cls-1" d="M172.08,150.15a12.47,12.47,0,0,0-17.62,0l-19.38,19.38a12.46,12.46,0,1,0,17.62,17.62l19.38-19.38A12.47,12.47,0,0,0,172.08,150.15Z"/><path class="cls-1" d="M290.11,32.11a12.46,12.46,0,0,0-17.61,0L253.12,51.49a12.46,12.46,0,0,0,17.61,17.62l19.38-19.38A12.45,12.45,0,0,0,290.11,32.11Z"/></g></g></svg>