<svg xmlns="http://www.w3.org/2000/svg" viewBox="0 0 268.93 325.98"><defs><style>.cls-1{fill:#1d1d1b;}</style></defs><g id="Ebene_2" data-name="Ebene 2"><g id="Ebene_2-2" data-name="Ebene 2"><path class="cls-1" d="M268.93,185.14v18.48a10.87,10.87,0,0,1-10.87,10.87H204.37a10.88,10.88,0,0,1-10.88-10.87V185.14a10.88,10.88,0,0,1,8.72-10.66v-20.8a6.74,6.74,0,0,0-6.73-6.73h-2.21a57.18,57.18,0,0,1-99.82,0H10.87A10.88,10.88,0,0,1,0,136.07V100.16A10.87,10.87,0,0,1,10.87,89.29H94.56a57.33,57.33,0,0,1,29.66-24.06V51.73a10.4,10.4,0,0,1,.22-2.18H95.25A10.88,10.88,0,0,1,84.37,38.68V23.1A10.88,10.88,0,0,1,95.25,12.23h29V10.87A10.87,10.87,0,0,1,135.09,0h16.53a10.87,10.87,0,0,1,10.87,10.87v1.36h29A10.87,10.87,0,0,1,202.34,23.1V38.68a10.87,10.87,0,0,1-10.87,10.87H162.28a11.12,11.12,0,0,1,.21,2.18v13.5a57.33,57.33,0,0,1,29.66,24.06h20.93a46.49,46.49,0,0,1,46.44,46.43v38.65A10.88,10.88,0,0,1,268.93,185.14ZM257.62,289.56a10.85,10.85,0,0,0-.56-1.89l-16.17-51.51a10.88,10.88,0,0,0-20.75,0l-16.4,52.28a7.59,7.59,0,0,0-.22.78,28.3,28.3,0,1,0,54.1.34Z"/></g></g></svg>