<svg xmlns="http://www.w3.org/2000/svg" viewBox="0 0 4186.06 1054.9"><defs><style>.cls-1{fill:#cad85a;}</style></defs><g id="Ebene_2" data-name="Ebene 2"><g id="Ebene_2-2" data-name="Ebene 2"><path class="cls-1" d="M4186.06,579V867.16c0,.41-.12,1.39-19.23,72.06-4.76,17.63-9.53,35.22-13.13,48.41-1.8,6.6-3.31,12.09-4.37,16-2.1,7.62-2.1,7.62-3.6,8.4l-3.34.06-21.21-10v36l-.36,1.6a2.74,2.74,0,0,0,.28-1c0,.51.16,2.43.3,3.83.68,6.8.87,9.63-1.14,11.45a4,4,0,0,1-3.51,1c-.89-.17-.93-.18-6.84-4l-1.38-.9h0l-.32-.2-115.2-87-183.24,78.43a8,8,0,0,1-4.55,1.36,8.47,8.47,0,0,1-4.8-1.53l-48.55-29.66-6.67,2.61a8.3,8.3,0,0,1-4.43,1.23,8.42,8.42,0,0,1-4.69-1.37l-122.32-68.37L3549.1,963.4a9.33,9.33,0,0,1-6.76-.08l-48.46-23.17-9.84,2.51a10,10,0,0,1-6.57-.06l-15.23-6.67-46.71,27.15-.48.24a9.33,9.33,0,0,1-7,0l-1.9-1.69-20.62-38.06-35.38,18.81-.48.21a9.76,9.76,0,0,1-6.74,0L3341,941l-63.44-107.1-99.9,61-.56.28a9.46,9.46,0,0,1-7,0l-1.25-.82L3139,864.7l-27.1,15.13-.55.25a9.94,9.94,0,0,1-6.76,0l-1.24-.75L2989,775.92,2922.38,802a9.33,9.33,0,0,1-6.66.12l-49.37-11.09-10.27,3.69a10.06,10.06,0,0,1-6.48.1l-59.14-12.16-111.17,27.19a9.26,9.26,0,0,1-6.06.12l-84.69-6-1.15-.26a1.81,1.81,0,0,0-1.37,0l-.42.14-143.41,39.33a9.4,9.4,0,0,1-6.59,0l-47-14.12L2375,832.49a10,10,0,0,1-6.4,0l-101.08-27.74-86.65,36.54a8.09,8.09,0,0,1-3.92,1.21h-.13a8.27,8.27,0,0,1-5.38-1.7l-1-1.09L2164,828.6c-11.81,8.39-26.12,16.33-38.81,22.84-16.39,8.41-30.07,14.43-32.15,15.92v-.2c0,.41-.12,1.39-19.23,72.06-4.76,17.63-9.53,35.22-13.13,48.41-1.8,6.6-3.31,12.09-4.37,16-2.1,7.62-2.1,7.62-3.6,8.4l-3.34.06-21.21-10v36l-.36,1.6a2.74,2.74,0,0,0,.28-1c0,.51.16,2.43.3,3.83.68,6.8.87,9.63-1.14,11.45a4,4,0,0,1-3.51,1c-.89-.17-.93-.18-6.84-4l-1.38-.9h0l-.32-.2-115.2-87-183.24,78.43a8,8,0,0,1-4.55,1.36,8.47,8.47,0,0,1-4.8-1.53l-48.55-29.66-6.67,2.61a8.3,8.3,0,0,1-4.43,1.23,8.42,8.42,0,0,1-4.69-1.37l-122.32-68.37-64.66,18.06a9.33,9.33,0,0,1-6.76-.08l-48.46-23.17-9.84,2.51a10,10,0,0,1-6.57-.06l-15.23-6.67-46.71,27.15-.48.24a9.33,9.33,0,0,1-7,0l-1.9-1.69-20.62-38.06-35.38,18.81-.48.21a9.76,9.76,0,0,1-6.74,0l-2-1.61-63.44-107.1-99.9,61-.56.28a9.46,9.46,0,0,1-7,0l-1.25-.82-29.93-29.6-27.1,15.13-.55.25a9.94,9.94,0,0,1-6.76,0l-1.24-.75L896,775.92,829.35,802a9.33,9.33,0,0,1-6.66.12l-49.37-11.09-10.27,3.69a10.06,10.06,0,0,1-6.48.1l-59.14-12.16L586.26,809.88a9.26,9.26,0,0,1-6.06.12l-84.69-6-1.15-.26a1.81,1.81,0,0,0-1.37,0l-.42.14L349.16,843.22a9.4,9.4,0,0,1-6.59,0l-47.05-14.12-13.59,3.41a10,10,0,0,1-6.4,0L174.45,804.73,87.8,841.27a8.09,8.09,0,0,1-3.92,1.21h-.13a8.27,8.27,0,0,1-5.38-1.7l-1-1.09L71,828.6C59.15,837,44.84,844.93,32.15,851.44,15.76,859.85,2.08,865.87,0,867.36V579H1V374.91c4.16,3,31.51,15,64.27,31.83,25.37,13,54,28.88,77.58,45.65l12.9-22.17,1.92-2.17a16.5,16.5,0,0,1,10.75-3.4h.26a16.18,16.18,0,0,1,7.84,2.42l173.21,73L551.8,444.66a19.87,19.87,0,0,1,12.79,0l27.17,6.81,94-28.22a18.81,18.81,0,0,1,13.18,0l286.68,78.62.84.28a3.61,3.61,0,0,0,2.74,0l2.3-.52,169.3-12a18.49,18.49,0,0,1,12.11.24l222.24,54.35,118.22-24.31a20.09,20.09,0,0,1,12.95.2l20.53,7.38,98.7-22.17a18.62,18.62,0,0,1,13.31.24l133.16,52.19L2020.58,351l2.48-1.5a19.85,19.85,0,0,1,13.51,0l1.1.5,54.17,30.25,59.84-59.17,2.5-1.64a18.89,18.89,0,0,1,14,0l1.12.56L2369,441.84l126.82-214.1,3.9-3.22a19.5,19.5,0,0,1,13.47,0l1,.42,70.73,37.6,41.22-76.08,3.8-3.38a18.64,18.64,0,0,1,13.93,0l1,.48,93.38,54.28,30.44-13.34a20,20,0,0,1,13.14-.12l19.67,5,96.87-46.32a18.64,18.64,0,0,1,13.51-.16L3041,219,3285.54,82.35a16.81,16.81,0,0,1,9.37-2.74,16.6,16.6,0,0,1,8.86,2.46l13.33,5.22L3414.16,28a16.89,16.89,0,0,1,9.59-3.06,16.09,16.09,0,0,1,9.1,2.72l366.3,156.78,230.29-174,.64-.4v0c.3-.2,1.36-.9,2.76-1.79,11.81-7.74,11.89-7.76,13.67-8.1a7.94,7.94,0,0,1,7,1.94c4,3.64,3.64,9.29,2.28,22.89-.27,2.67-.62,6.28-.61,7.49a6,6,0,0,0-.55-1.8l.72,3.2v71.87l42.4-20.07,6.68.12c3,1.56,3,1.56,7.19,16.79,2.12,7.72,5.14,18.69,8.74,31.88,7.2,26.37,16.73,61.54,26.25,96.78,38.2,141.27,38.38,143.23,38.44,144.05V579Z"/></g></g></svg>