<svg xmlns="http://www.w3.org/2000/svg" viewBox="0 0 566.93 566.93"><defs><style>.cls-1{fill:#c7d437;}</style></defs><g id="Ebene_2" data-name="Ebene 2"><g id="Ebene_2-2" data-name="Ebene 2"><path class="cls-1" d="M283.46,0C126.91,0,0,126.91,0,283.46S126.91,566.93,283.46,566.93,566.93,440,566.93,283.46,440,0,283.46,0ZM391,133.8a10.57,10.57,0,0,1,14-5.31,35.24,35.24,0,0,1,4.5,2.39,47.34,47.34,0,0,1,8.7,6.87c15.24,15.22,18.31,37.71,2.9,65.55-11.85,21.41-11.74,34.94-5.75,43.39a15,15,0,0,0,2.3,2.6c.34.31.49.41.35.33a10.57,10.57,0,1,1-11.08,18,31.56,31.56,0,0,1-8.81-8.7c-10.94-15.42-11.11-37.65,4.49-65.85,10.87-19.63,9.2-31.84.67-40.35a26.09,26.09,0,0,0-4.86-3.84h0a16.8,16.8,0,0,0-1.66-.93l-.41-.17A10.58,10.58,0,0,1,391,133.8Zm-126.84,0a10.57,10.57,0,0,1,14-5.31,34.58,34.58,0,0,1,4.5,2.39,47.74,47.74,0,0,1,8.71,6.87c15.23,15.22,18.3,37.71,2.89,65.55-11.84,21.41-11.74,34.94-5.75,43.39a14.68,14.68,0,0,0,2.31,2.6c.33.31.48.41.34.33a10.57,10.57,0,1,1-11.08,18,31.56,31.56,0,0,1-8.81-8.7c-10.94-15.42-11.11-37.65,4.5-65.85,10.86-19.63,9.19-31.84.66-40.35a26,26,0,0,0-4.85-3.84h0a18.19,18.19,0,0,0-1.67-.93l-.41-.18A10.57,10.57,0,0,1,264.15,133.8ZM158,152.72a26.42,26.42,0,0,0-4.86-3.84h0a15,15,0,0,0-1.66-.93,10.57,10.57,0,0,1,8.25-19.46,34.46,34.46,0,0,1,4.49,2.39,47.4,47.4,0,0,1,8.71,6.87c15.24,15.21,18.31,37.71,2.9,65.55-11.85,21.41-11.74,34.94-5.75,43.39a15,15,0,0,0,2.3,2.6c.34.3.49.41.35.33a10.57,10.57,0,1,1-11.08,18,31.7,31.7,0,0,1-8.82-8.7c-10.93-15.42-11.1-37.65,4.5-65.85C168.2,173.44,166.54,161.23,158,152.72ZM448.93,342a40.19,40.19,0,0,1-40.15,40.17h-250a18.07,18.07,0,1,0,0,36.09H438.13a10.57,10.57,0,0,1,0,21.14H158.77a40.2,40.2,0,0,1-40.14-38.18h0v-2h0A40.17,40.17,0,0,1,158.73,361H408.78a19.05,19.05,0,0,0,19-19v-4a19,19,0,0,0-19-19H128.57a10.57,10.57,0,1,1,0-21.14H408.8A40.15,40.15,0,0,1,448.93,338Z"/></g></g></svg>