<svg xmlns="http://www.w3.org/2000/svg" viewBox="0 0 566.93 566.93"><defs><style>.cls-1{fill:#c7d437;}</style></defs><g id="Ebene_2" data-name="Ebene 2"><g id="Ebene_2-2" data-name="Ebene 2"><path class="cls-1" d="M283.46,0C126.91,0,0,126.91,0,283.46S126.91,566.93,283.46,566.93,566.93,440,566.93,283.46,440,0,283.46,0ZM435.92,148.46a72.74,72.74,0,0,0-27.82,39.22c-1.17,4.16-2,8.44-2.82,13-.63,3.31-1.27,6.74-2.07,10.11a62.19,62.19,0,0,1-5.59,15.46c-9.32,17.3-27.15,27.55-47.82,27.55h-1A61.85,61.85,0,0,1,312.07,241c1.21-3.95,2.63-8,4.28-12.14,13.74-34.15,36.52-54.86,67.72-61.55a4.93,4.93,0,0,0-2.07-9.65c-33.32,7.14-58.76,29.57-73.74,65,1.22,1.13,2.48,2.21,3.8,3.23A172.85,172.85,0,0,0,305,262.6a95.24,95.24,0,0,1,13.95,33.75c5.78,29.86-4.78,61.51-31.37,94.11l.45.75a41.07,41.07,0,0,1-14.31,56.22l-39.4,23.42a4.94,4.94,0,0,1-6.76-1.72l-7.94-13.36L200.38,467.2a4.93,4.93,0,1,1-5-8.48l19.23-11.44-15.88-26.72L179.45,432l-.1.06a4.93,4.93,0,0,1-4.94-8.54l19.23-11.44-7.95-13.36a4.94,4.94,0,0,1,1.72-6.76l39.4-23.42a41.07,41.07,0,0,1,55.35,12.9c23-29.21,32.13-57.18,27.1-83.21a85.87,85.87,0,0,0-12.68-30.47,5,5,0,0,1-1.25-1.88,134,134,0,0,0-12-15l0,.09c-.11.26-.22.52-.32.78q-22.54-21.34-58.37-40.52h0a4.93,4.93,0,0,0-4.66,8.7q36.21,19.4,58,40.66a47.92,47.92,0,0,1-38.06,18.85c-14.29,0-27-6.59-34.71-18.21a48.63,48.63,0,0,1-5.41-11.54c-.84-2.51-1.56-5.06-2.27-7.53-.94-3.32-1.83-6.46-3-9.48a53.77,53.77,0,0,0-23.11-27,4.94,4.94,0,0,1,.52-8.83,134.34,134.34,0,0,1,54.21-10.57c20.52.33,36.91,6.19,47.39,17A45.75,45.75,0,0,1,286,239.48q5.46,5.43,10.39,11.36a184.81,184.81,0,0,1,4.44-21.51,54.18,54.18,0,0,1-4.39-7.23,58.86,58.86,0,0,1,6.91-62.33c12.24-15.08,32.75-24.56,59.3-27.41a175.85,175.85,0,0,1,72,7.36,4.93,4.93,0,0,1,3.37,4h0A5,5,0,0,1,435.92,148.46Z"/></g></g></svg>