<svg xmlns="http://www.w3.org/2000/svg" viewBox="0 0 566.93 566.93"><defs><style>.cls-1{fill:#ef791b;}</style></defs><g id="Ebene_2" data-name="Ebene 2"><g id="Ebene_2-2" data-name="Ebene 2"><path class="cls-1" d="M307.64,346.06c-5.73-8.14-11.6-16.49-14.61-26.8-6.77,7.95-12.11,17.86-14.35,27.17-2.51,10.51-2.72,22.15-2.72,32.23a7.08,7.08,0,0,1-7.08,7.09c-11.94,0-19.29-8.12-23.4-16.95-2.2,4.79-4.2,12-4.48,22.51-.06,1.05-.06,1.91-.06,2.76,0,25,19.08,45.29,42.52,45.29S326,419,326,394.07c0-1.32-.09-2.54-.18-3.76C324.32,369.77,315.84,357.72,307.64,346.06Z"/><path class="cls-1" d="M283.46,0C126.91,0,0,126.91,0,283.46S126.91,566.93,283.46,566.93,566.93,440,566.93,283.46,440,0,283.46,0Zm.38,453.53h-.09a.94.94,0,0,1-.29,0A127.7,127.7,0,0,1,155.91,326c0-2.41,0-4.83.15-7.24,2.07-72.39,37.76-90.52,39.27-91.25a7.09,7.09,0,0,1,10.11,5.38c.07.47,6.62,43.7,35.52,49.87.12-18.62.95-46.8,7.29-71.87,9.12-36,35.23-73.76,66.52-96.15A7.08,7.08,0,0,1,326,120.48c0,33.09,16.67,55.52,36,81.49C382.78,230,406.4,261.81,410.3,312.54c0,0,.72,9.91.72,13.44A127.7,127.7,0,0,1,283.84,453.53Z"/></g></g></svg>