<svg xmlns="http://www.w3.org/2000/svg" viewBox="0 0 327.21 457.6"><defs><style>.cls-1{fill:#1d1d1b;}</style></defs><g id="Ebene_2" data-name="Ebene 2"><g id="Ebene_2-2" data-name="Ebene 2"><path class="cls-1" d="M112.35,457.6A84.74,84.74,0,0,1,37.11,333.91,85.32,85.32,0,0,1,59,307.1v-205A40.42,40.42,0,0,1,99.34,61.7h26a40.42,40.42,0,0,1,40.37,40.37v205a84.56,84.56,0,0,1,31.34,65.78,84.65,84.65,0,0,1-84.72,84.72Zm-13-379.28a23.78,23.78,0,0,0-23.75,23.75V311.18a8.3,8.3,0,0,1-3.4,6.71,68.09,68.09,0,1,0,80.32,0,8.31,8.31,0,0,1-3.41-6.71V102.07a23.78,23.78,0,0,0-23.74-23.75Z"/><path class="cls-1" d="M164,372.89A51.68,51.68,0,1,1,94.7,324.31V142.8a13,13,0,0,1,13-13.05H117a13,13,0,0,1,13,13.05V324.31A51.68,51.68,0,0,1,164,372.89Z"/><path class="cls-1" d="M27.64,122.54a6.81,6.81,0,0,1-6.81,6.81h-14A6.81,6.81,0,0,1,0,122.54v-7.43a6.81,6.81,0,0,1,6.82-6.81h14a6.81,6.81,0,0,1,6.81,6.81Z"/><path class="cls-1" d="M27.64,167a6.81,6.81,0,0,1-6.81,6.82h-14A6.82,6.82,0,0,1,0,167v-7.42a6.82,6.82,0,0,1,6.82-6.82h14a6.81,6.81,0,0,1,6.81,6.82Z"/><path class="cls-1" d="M27.64,211.41a6.82,6.82,0,0,1-6.81,6.82h-14A6.82,6.82,0,0,1,0,211.41V204a6.81,6.81,0,0,1,6.82-6.81h14A6.81,6.81,0,0,1,27.64,204Z"/><path class="cls-1" d="M27.64,255.85a6.81,6.81,0,0,1-6.81,6.81h-14A6.81,6.81,0,0,1,0,255.85v-7.43a6.82,6.82,0,0,1,6.82-6.82h14a6.81,6.81,0,0,1,6.81,6.82Z"/><path class="cls-1" d="M27.64,300.28a6.81,6.81,0,0,1-6.81,6.82h-14A6.82,6.82,0,0,1,0,300.28v-7.42A6.82,6.82,0,0,1,6.82,286h14a6.81,6.81,0,0,1,6.81,6.82Z"/><path class="cls-1" d="M321.15,61.27H301.32l6.76-11.7a6.06,6.06,0,0,0-10.5-6.06l-6.75,11.7-9.72-16.83h13.51a6.06,6.06,0,1,0,0-12.12H281.11L291,9.09A6.06,6.06,0,1,0,280.53,3L270.62,20.2,263.86,8.5a6.06,6.06,0,0,0-10.5,6.06l6.76,11.7H240.68l6.76-11.7a6.06,6.06,0,1,0-10.5-6.06l-6.75,11.7L220.27,3a6.06,6.06,0,1,0-10.49,6.06l9.91,17.17H206.18a6.06,6.06,0,0,0,0,12.12h13.51L210,55.21l-6.75-11.7a6.06,6.06,0,0,0-10.5,6.06l6.76,11.7H179.65a6.06,6.06,0,0,0,0,12.12h19.83l-6.76,11.7a6.06,6.06,0,0,0,10.5,6.06L210,79.45l9.72,16.83H206.18a6.06,6.06,0,0,0,0,12.12h13.51l-9.91,17.17a6.06,6.06,0,1,0,10.49,6.06l9.92-17.17,6.75,11.7a6.06,6.06,0,1,0,10.5-6.06l-6.76-11.7h19.44l-6.76,11.7a6.06,6.06,0,0,0,10.5,6.06l6.75-11.7,9.92,17.17A6.06,6.06,0,1,0,291,125.57l-9.91-17.17h13.51a6.06,6.06,0,0,0,0-12.12H281.11l9.72-16.83,6.75,11.7a6.06,6.06,0,0,0,10.5-6.06l-6.76-11.7h19.83a6.06,6.06,0,1,0,0-12.12Zm-54,35H233.69L217,67.33l16.72-28.95h33.43l16.71,28.95Z"/></g></g></svg>