<svg xmlns="http://www.w3.org/2000/svg" viewBox="0 0 566.93 566.93"><defs><style>.cls-1{fill:#2a4b9b;}</style></defs><g id="Ebene_2" data-name="Ebene 2"><g id="Ebene_2-2" data-name="Ebene 2"><polygon class="cls-1" points="241.24 210.33 199.02 283.46 241.24 356.6 325.69 356.6 367.91 283.46 325.69 210.33 241.24 210.33"/><path class="cls-1" d="M283.46,0C126.91,0,0,126.91,0,283.46S126.91,566.93,283.46,566.93,566.93,440,566.93,283.46,440,0,283.46,0ZM462.17,298.77H412.09l17.06,29.55a15.31,15.31,0,1,1-26.51,15.31l-17.06-29.55L361,356.6h34.13a15.31,15.31,0,1,1,0,30.61H361l25,43.37a15.31,15.31,0,0,1-26.51,15.31l-25.05-43.37-17.06,29.55A15.31,15.31,0,1,1,291,416.76L308,387.21H258.92L276,416.76a15.31,15.31,0,0,1-26.51,15.31L232.4,402.52l-25,43.37a15.31,15.31,0,0,1-26.52-15.31l25-43.37H171.77a15.31,15.31,0,1,1,0-30.61h34.12l-24.55-42.52-17.06,29.55a15.31,15.31,0,1,1-26.51-15.31l17.06-29.55H104.75a15.31,15.31,0,0,1,0-30.61h50.08l-17.06-29.55a15.31,15.31,0,0,1,26.51-15.31l17.06,29.55,24.55-42.52H171.77a15.31,15.31,0,1,1,0-30.61h34.12l-25-43.37A15.31,15.31,0,0,1,207.37,121l25,43.37,17.07-29.55A15.31,15.31,0,1,1,276,150.17l-17.06,29.55H308L291,150.17a15.31,15.31,0,1,1,26.51-15.31l17.07,29.55,25-43.37a15.31,15.31,0,1,1,26.51,15.31l-25,43.37h34.12a15.31,15.31,0,1,1,0,30.61H361l24.55,42.52,17.06-29.55a15.31,15.31,0,0,1,26.51,15.31L412.1,268.16h50.08a15.31,15.31,0,0,1,0,30.61Z"/></g></g></svg>