<svg xmlns="http://www.w3.org/2000/svg" viewBox="0 0 566.93 566.93"><defs><style>.cls-1{fill:#2a4b9b;}</style></defs><g id="Ebene_2" data-name="Ebene 2"><g id="Ebene_2-2" data-name="Ebene 2"><path class="cls-1" d="M283.46,0C126.91,0,0,126.91,0,283.46S126.91,566.93,283.46,566.93,566.93,440,566.93,283.46,440,0,283.46,0ZM187.79,156.27c12-18,41.25-31.74,74.54-35,34.46-3.42,65.3,4.9,82.63,22.24a50.12,50.12,0,0,1,4.12,4.84,72.46,72.46,0,0,1-17.44,12.44c-21.55,12.9-56,33.67-53.4,79.29A55.8,55.8,0,0,0,247,251C192,198.81,180.05,167.9,187.79,156.27ZM205.3,446.45c-21.51-1.37-48-19.78-67.5-46.9-20.23-28.15-28.53-59.09-22.22-82.76a43.42,43.42,0,0,1,2.2-6.06,84.17,84.17,0,0,1,19.63,8.91c22,12.2,57.17,31.59,95.31,6.67a56.58,56.58,0,0,0,25,21.57C240.15,421.58,218.9,447,205.3,446.45Zm75-118.52A31.69,31.69,0,1,1,312,296.24,31.68,31.68,0,0,1,280.28,327.93Zm160.6,40.12c-14.25,31.57-36.9,54.22-60.59,60.6A48.57,48.57,0,0,1,374,429.8a72,72,0,0,1-2.08-21.39c-.41-25.12-1.2-65.37-42-86a55.7,55.7,0,0,0,6.75-26.21,54.43,54.43,0,0,0-.61-6.12c72.82-21.63,105.75-16,111.67-3.95C457.31,305.48,454.62,337.62,440.88,368.05Z"/></g></g></svg>