<svg xmlns="http://www.w3.org/2000/svg" viewBox="0 0 566.93 566.93"><defs><style>.cls-1{fill:#ffea0a;}</style></defs><g id="Ebene_2" data-name="Ebene 2"><g id="Ebene_2-2" data-name="Ebene 2"><path class="cls-1" d="M250.91,145.43a5.32,5.32,0,0,0,3.75-9.09,5.49,5.49,0,0,0-7.52,0,5.36,5.36,0,0,0,0,7.52A5.41,5.41,0,0,0,250.91,145.43Z"/><path class="cls-1" d="M267.17,145.27h33.34a5.31,5.31,0,1,0,0-10.62H267.17a5.31,5.31,0,1,0,0,10.62Z"/><path class="cls-1" d="M282.77,411.2a15.91,15.91,0,1,0,15.9,15.9A15.91,15.91,0,0,0,282.77,411.2Z"/><path class="cls-1" d="M283.46,0C126.91,0,0,126.91,0,283.46S126.91,566.93,283.46,566.93,566.93,440,566.93,283.46,440,0,283.46,0Zm93.12,418a35.54,35.54,0,0,1-35.51,35.43L226,453.54c-19.53,0-35.78-15.89-35.78-35.42V148.85c0-19.53,16.6-35.46,36.14-35.46H341.23a35.46,35.46,0,0,1,35.52,35.44Z"/><rect class="cls-1" x="208.78" y="163.88" width="151.47" height="236.51"/></g></g></svg>