<svg xmlns="http://www.w3.org/2000/svg" viewBox="0 0 566.93 566.93"><defs><style>.cls-1{fill:#ef791b;}</style></defs><g id="Ebene_2" data-name="Ebene 2"><g id="Ebene_2-2" data-name="Ebene 2"><path class="cls-1" d="M283.46,0C126.91,0,0,126.91,0,283.46S126.91,566.93,283.46,566.93,566.93,440,566.93,283.46,440,0,283.46,0ZM387.7,292.2l29.62,58.63H293.43v-64.1h85.38A10,10,0,0,1,387.7,292.2Zm-71.82-86.69a10,10,0,0,1,14.09,0L345.48,221a10,10,0,0,1-14.1,14.1l-15.5-15.51A10,10,0,0,1,315.88,205.51Zm55.28-32.42a10,10,0,0,1-10,10H339.27a10,10,0,0,1,0-19.94H361.2A10,10,0,0,1,371.16,173.09Zm-55.28-46.51,15.5-15.51a10,10,0,0,1,14.1,14.1L330,140.67a10,10,0,1,1-14.09-14.09ZM273.5,95.35a10,10,0,0,1,19.93,0v21.93a10,10,0,1,1-19.93,0Zm10,41.2a36.54,36.54,0,1,1-36.53,36.54A36.58,36.58,0,0,1,283.46,136.55Zm-32.41,83-15.51,15.51A10,10,0,0,1,221.45,221L237,205.51a10,10,0,0,1,14.09,14.09Zm-29.6-108.53a10,10,0,0,1,14.09,0l15.51,15.51A10,10,0,0,1,237,140.67l-15.51-15.5A10,10,0,0,1,221.45,111.07Zm-15.72,52.05h21.93a10,10,0,0,1,0,19.94H205.73a10,10,0,0,1,0-19.94ZM273.5,425.54H123.36a10,10,0,0,1-8.89-14.46l25.07-49.64h134Zm0-74.71H149.61l29.61-58.63a10,10,0,0,1,8.9-5.47H273.5Zm10-90a10,10,0,0,1-10-10V228.9a10,10,0,1,1,19.93,0v21.93A10,10,0,0,1,283.46,260.79ZM443.57,425.54H293.43v-64.1h134l25.07,49.64A10,10,0,0,1,443.57,425.54Z"/></g></g></svg>