<svg xmlns="http://www.w3.org/2000/svg" viewBox="0 0 878.46 1027.07"><defs><style>.cls-1{fill:#040506;}.cls-2{fill:#1d6fb7;}.cls-3{fill:#ea620d;}.cls-4{fill:#c7cb20;}.cls-5{fill:#c01818;}.cls-6{fill:#010101;}</style></defs><g id="Ebene_2" data-name="Ebene 2"><g id="Ebene_2-2" data-name="Ebene 2"><path id="Pfad_1113" data-name="Pfad 1113" class="cls-1" d="M641.26,312.68c2.48,1.38,2.17,3.68,1.14,6a3,3,0,0,1-2.13,1.33,2.73,2.73,0,0,1-2.07-.6,4.27,4.27,0,0,1-1.22-2.56,3,3,0,0,1,.2-2C638.07,313.22,639.37,311.63,641.26,312.68Zm-15-.13c2.48,1.38,2.17,3.69,1.14,6a2.91,2.91,0,0,1-2.13,1.33,2.65,2.65,0,0,1-2.06-.59,4.24,4.24,0,0,1-1.22-2.56,3,3,0,0,1,.2-2C623.11,313.09,624.42,311.5,626.3,312.55Z"/><path id="Pfad_1114" data-name="Pfad 1114" class="cls-1" d="M618.23,355.79c.28,6.19,4.87,18.44,12.35,17.33s10.85-13.29,12.5-17.27c1-2.35,3-5.6,2.85-3.78-.73,7.27,2,6.9-5.89,16-10.09,11.7-23.44,4.7-25.1-12.6-.37-3.9-1.18-2.86-.14-5.39.58-1.43,1-1,2,.07S618.13,353.78,618.23,355.79Z"/><path id="Pfad_1115" data-name="Pfad 1115" class="cls-1" d="M770.08,923.29c-.26.19-.74.25-.93,0s.48-.25.63-.22S770.33,923.11,770.08,923.29Z"/><g id="Gruppe_31" data-name="Gruppe 31"><path id="Pfad_1116" data-name="Pfad 1116" class="cls-2" d="M510.86,71.45a41.07,41.07,0,1,0,41.06,41.06,41.06,41.06,0,0,0-41.06-41.06ZM496.42,90.8c1.88-2.82,6.47-5,11.7-5.5,5.41-.54,10.26.77,13,3.49a7.58,7.58,0,0,1,.64.76,11.15,11.15,0,0,1-2.73,2c-3.39,2-8.8,5.29-8.39,12.45a8.79,8.79,0,0,0-4.91,1.72c-8.63-8.19-10.51-13-9.3-14.87Zm2.74,45.57c-3.37-.21-7.53-3.11-10.6-7.36-3.17-4.42-4.48-9.28-3.49-13a6.36,6.36,0,0,1,.35-1,13,13,0,0,1,3.08,1.4c3.45,1.91,9,5,15,1a8.81,8.81,0,0,0,3.93,3.39c-2.76,11.58-6.1,15.56-8.24,15.48Zm11.78-18.61a5,5,0,1,1,5-5h0a5,5,0,0,1-5,5Zm25.22,6.3c-2.24,5-5.79,8.52-9.51,9.52a8.37,8.37,0,0,1-1,.18,11.52,11.52,0,0,1-.32-3.36c-.07-4-.19-10.27-6.59-13.5a8.86,8.86,0,0,0,1.06-4.12c0-.32,0-.64-.1-1,11.44-3.4,16.61-2.51,17.54-.62,1.5,3,1.08,8.08-1.08,12.85Z"/><g id="Gruppe_30" data-name="Gruppe 30"><path id="Pfad_1117" data-name="Pfad 1117" class="cls-2" d="M778,90.2l-2.12,3.68L778,97.56h4.26l2.12-3.68-2.12-3.68Z"/><path id="Pfad_1118" data-name="Pfad 1118" class="cls-2" d="M764.11,123.89a1.07,1.07,0,0,1-.43-.85V96.44a3,3,0,0,0-3-3h-3.31a3,3,0,0,0-3,3V123a1.07,1.07,0,0,1-.43.85,8.66,8.66,0,1,0,10.21,0ZM759,137.45a6.57,6.57,0,0,1-2.24-12.75V101.62a1.66,1.66,0,0,1,1.66-1.66h1.17a1.66,1.66,0,0,1,1.66,1.66h0V124.7A6.57,6.57,0,0,1,759,137.45Z"/><path id="Pfad_1119" data-name="Pfad 1119" class="cls-2" d="M764.07,69.52a41.06,41.06,0,1,0,41.06,41.06,41.06,41.06,0,0,0-41.06-41.06ZM744.72,98.1a.85.85,0,0,1,.86-.86h1.79a.86.86,0,0,1,.86.86v1a.86.86,0,0,1-.86.86h-1.79a.86.86,0,0,1-.86-.86Zm0,5.65a.86.86,0,0,1,.86-.86h1.79a.85.85,0,0,1,.86.86h0v1a.87.87,0,0,1-.86.86h-1.79a.86.86,0,0,1-.86-.86h0Zm0,5.65a.86.86,0,0,1,.86-.86h1.79a.86.86,0,0,1,.86.86h0v.95a.86.86,0,0,1-.86.86h-1.79a.86.86,0,0,1-.86-.86h0Zm0,5.65a.86.86,0,0,1,.86-.86h1.79a.86.86,0,0,1,.86.86v1a.86.86,0,0,1-.86.86h-1.79a.86.86,0,0,1-.86-.86h0Zm2.65,7.46h-1.79a.86.86,0,0,1-.86-.86h0v-1a.86.86,0,0,1,.86-.86h1.79a.86.86,0,0,1,.86.86v1a.86.86,0,0,1-.86.86Zm21.56,12.56a10.77,10.77,0,0,1-19.86-8.36c.11-.26.23-.53.37-.79a10.9,10.9,0,0,1,2.78-3.41V96.45a5.14,5.14,0,0,1,5.13-5.14h3.31a5.14,5.14,0,0,1,5.13,5.14v26.06a10.78,10.78,0,0,1,3.14,12.57Zm20.19-40.42h-2.53l.86,1.49a.76.76,0,0,1-.28,1h0a.76.76,0,0,1-.39.1.77.77,0,0,1-.67-.39l-.86-1.48L784,97.56h1.72a.76.76,0,0,1,.76.77.77.77,0,0,1-.76.77H784l1.26,2.18a.77.77,0,0,1-.28,1,.76.76,0,0,1-1-.28h0l-1.26-2.18-.86,1.49a.79.79,0,0,1-1.06.28.78.78,0,0,1-.28-1.06l.86-1.48h-2.46l.85,1.48a.77.77,0,1,1-1.33.78l-.86-1.49-1.26,2.18a.77.77,0,1,1-1.33-.77l1.26-2.18H774.5a.78.78,0,0,1-.77-.78.77.77,0,0,1,.77-.76h1.72L775,95.42l-.86,1.48a.77.77,0,0,1-.67.39.76.76,0,0,1-.67-1.15h0l.86-1.49h-2.52a.77.77,0,1,1,0-1.54h2.52l-.86-1.49a.77.77,0,0,1,1.34-.77l.85,1.49,1.24-2.14h-1.72a.77.77,0,0,1,0-1.54h1.72L775,86.47a.77.77,0,1,1,1.33-.77h0l1.27,2.19.85-1.49a.77.77,0,0,1,1.34.77l-.86,1.49h2.47l-.86-1.49a.77.77,0,0,1,1.34-.77l.86,1.49L784,85.7a.77.77,0,0,1,1.33.77L784,88.66h1.72a.77.77,0,0,1,0,1.54H784l1.24,2.14.86-1.49a.77.77,0,0,1,1.33.77h0l-.86,1.49h2.52a.77.77,0,0,1,0,1.54Z"/></g></g><g id="Gruppe_33" data-name="Gruppe 33"><g id="Gruppe_32" data-name="Gruppe 32"><path id="Pfad_1120" data-name="Pfad 1120" class="cls-3" d="M472.31,213.38a14.71,14.71,0,0,1-2.35-4.31,10.85,10.85,0,0,0-2.31,4.37,22.57,22.57,0,0,0-.44,5.19,1.15,1.15,0,0,1-1.14,1.14h0a4.16,4.16,0,0,1-3.76-2.73,9.22,9.22,0,0,0-.72,3.63c0,.17,0,.3,0,.44a6.85,6.85,0,1,0,13.68.87,6.32,6.32,0,0,0,0-.87c0-.21,0-.41,0-.61A13.06,13.06,0,0,0,472.31,213.38Z"/><path id="Pfad_1121" data-name="Pfad 1121" class="cls-3" d="M468.41,162.24a41.07,41.07,0,1,0,41.07,41.06,41.07,41.07,0,0,0-41.07-41.06Zm.06,68.44h-.06a20.57,20.57,0,0,1-20.53-20.53c0-.39,0-.78,0-1.17.33-11.65,6.08-14.57,6.32-14.69a1.14,1.14,0,0,1,1.52.53,1.35,1.35,0,0,1,.11.34c0,.07,1.06,7,5.71,8a50.5,50.5,0,0,1,1.17-11.57,29,29,0,0,1,10.71-15.48,1.14,1.14,0,0,1,1.59.26,1.16,1.16,0,0,1,.21.67c0,5.32,2.68,8.93,5.79,13.11,3.35,4.52,7.15,9.64,7.78,17.8,0,0,.12,1.6.12,2.17a20.56,20.56,0,0,1-20.47,20.53Z"/></g><path id="Pfad_1122" data-name="Pfad 1122" class="cls-3" d="M806.51,162.24a41.07,41.07,0,1,0,41.06,41.06,41.06,41.06,0,0,0-41.06-41.06ZM821,204l4.11,8.14h-17.2v-8.9h11.85A1.39,1.39,0,0,1,821,204ZM811,193.3a1.39,1.39,0,0,1,2,0h0l2.15,2.15a1.38,1.38,0,0,1-2,2L811,195.26a1.4,1.4,0,0,1,0-2Zm7.68-4.5a1.38,1.38,0,0,1-1.38,1.38h-3a1.38,1.38,0,1,1,0-2.76h3a1.38,1.38,0,0,1,1.38,1.38ZM811,182.34l2.16-2.15a1.38,1.38,0,1,1,2,1.91l0,.05L813,184.3a1.39,1.39,0,0,1-2-2ZM805.11,178a1.39,1.39,0,1,1,2.77-.08v3.12a1.39,1.39,0,0,1-2.77,0Zm1.38,5.72a5.07,5.07,0,1,1-5.07,5.07,5.07,5.07,0,0,1,5.07-5.07ZM802,195.26l-2.15,2.15a1.39,1.39,0,0,1-2-2L800,193.3a1.38,1.38,0,1,1,2,1.91l0,0Zm-4.11-15.07a1.39,1.39,0,0,1,2,0h0l2.15,2.15a1.38,1.38,0,0,1,0,2,1.4,1.4,0,0,1-2,0l0,0-2.15-2.15a1.41,1.41,0,0,1,0-2Zm-2.18,7.23h3a1.38,1.38,0,0,1,0,2.76h-3a1.38,1.38,0,1,1,0-2.76Zm9.41,36.43H784.27a1.39,1.39,0,0,1-1.39-1.39,1.32,1.32,0,0,1,.15-.62l3.48-6.89h18.6Zm0-11.67h-17.2L792,204a1.39,1.39,0,0,1,1.24-.76h11.85ZM806.49,201a1.38,1.38,0,0,1-1.38-1.38v-3a1.39,1.39,0,0,1,2.77,0v3a1.38,1.38,0,0,1-1.39,1.38Zm22.23,22.87H807.88v-8.9h18.59l3.48,6.89a1.39,1.39,0,0,1-.6,1.87,1.53,1.53,0,0,1-.63.15Z"/></g><g id="Gruppe_34" data-name="Gruppe 34"><path id="Pfad_1123" data-name="Pfad 1123" class="cls-4" d="M684.39,0a41.06,41.06,0,1,0,41.06,41.06A41.06,41.06,0,0,0,684.39,0ZM666.23,27a.76.76,0,0,1,.4-1,20.56,20.56,0,0,1,8.27-1.61,10.05,10.05,0,0,1,7.23,2.58,7,7,0,0,1,1.49,7.29l0,.12a41.25,41.25,0,0,0-8.91-6.18h0a.75.75,0,0,0-1,.28.76.76,0,0,0,.28,1l0,0a39,39,0,0,1,8.86,6.2A7.33,7.33,0,0,1,677,38.57a6.24,6.24,0,0,1-5.3-2.78,7.23,7.23,0,0,1-.82-1.76c-.13-.39-.24-.78-.35-1.15s-.28-1-.45-1.44a8.25,8.25,0,0,0-3.53-4.13.8.8,0,0,1-.32-.36Zm18.12,31a6.27,6.27,0,0,1-2.19,8.58l-6,3.58a.75.75,0,0,1-1-.26h0l-1.21-2L671,69.54a.76.76,0,0,1-1-.26.75.75,0,0,1,.27-1l2.93-1.75-2.42-4.08-2.94,1.75h0a.75.75,0,1,1-.8-1.28l0,0,2.94-1.74-1.22-2a.75.75,0,0,1,.26-1h0l6-3.57a6.27,6.27,0,0,1,8.44,2c3.51-4.46,4.9-8.73,4.14-12.7a13.14,13.14,0,0,0-1.94-4.65.81.81,0,0,1-.19-.29,20.73,20.73,0,0,0-2.65-3.12,6.41,6.41,0,0,0,.76-1.35,23.49,23.49,0,0,1,2.05,2.18,27.22,27.22,0,0,1,1.18-5h0A9.33,9.33,0,0,0,688,32.71a26.62,26.62,0,0,0-1.08,5.61,14.39,14.39,0,0,1,2.13,5.15c.88,4.55-.73,9.38-4.78,14.36Zm22.56-39.35a11,11,0,0,0-4.24,6c-.18.64-.31,1.29-.44,2-.09.51-.19,1-.31,1.55a9.71,9.71,0,0,1-.85,2.35,8.11,8.11,0,0,1-7.3,4.21h-.16a9.39,9.39,0,0,1-5.6-1.95c.19-.6.4-1.22.65-1.85,2.1-5.21,5.58-8.37,10.33-9.39a.75.75,0,0,0-.31-1.47c-5.22,1.11-9.18,4.69-11.43,10.34-.17.42-.32.83-.46,1.23a8,8,0,0,1-1.18-1.74,9,9,0,0,1,1.06-9.51c1.87-2.3,5-3.75,9.05-4.18a26.85,26.85,0,0,1,11,1.12.76.76,0,0,1,.52.6h0a.79.79,0,0,1-.3.73Z"/><path id="Pfad_1124" data-name="Pfad 1124" class="cls-4" d="M590.54,0A41.06,41.06,0,1,0,631.6,41.06,41.06,41.06,0,0,0,590.54,0ZM574.76,29.35h31.56a6.81,6.81,0,0,1,0,13.61H574.76a3,3,0,1,0,0,6h31.56a6.81,6.81,0,0,1,0,13.61H569.85a1.9,1.9,0,0,1,0-3.79h36.47a3,3,0,1,0,0-6H574.76a6.81,6.81,0,0,1,0-13.61h31.56a3,3,0,0,0,0-6H574.76a6.81,6.81,0,0,1,0-13.61h36.47a1.9,1.9,0,0,1,0,3.79H574.76a3,3,0,0,0,0,6Z"/></g><g id="Gruppe_36" data-name="Gruppe 36"><g id="Gruppe_35" data-name="Gruppe 35"><path id="Pfad_1125" data-name="Pfad 1125" class="cls-2" d="M814.71,298l-4.47,7.74,4.47,7.74h8.93l4.47-7.74L823.64,298Z"/><path id="Pfad_1126" data-name="Pfad 1126" class="cls-2" d="M819.17,264.72a41.06,41.06,0,1,0,41.07,41.06,41.06,41.06,0,0,0-41.07-41.06Zm18.92,42.68h-5.3l1.8,3.13a1.62,1.62,0,1,1-2.8,1.62L830,309l-2.59,4.5H831a1.62,1.62,0,0,1,0,3.24h-3.61l2.65,4.59a1.62,1.62,0,0,1-2.81,1.62l-2.65-4.59-1.8,3.13a1.62,1.62,0,0,1-2.81-1.62l1.8-3.13h-5.19l1.81,3.13a1.62,1.62,0,0,1-2.79,1.65l0,0-1.81-3.13L811.13,323a1.62,1.62,0,0,1-2.81-1.62l2.65-4.59h-3.61a1.62,1.62,0,0,1,0-3.24H811l-2.59-4.5-1.81,3.13a1.62,1.62,0,0,1-2.81-1.62l1.81-3.13h-5.3a1.62,1.62,0,1,1,0-3.24h5.3L803.76,301a1.62,1.62,0,0,1,2.79-1.65l0,0,1.81,3.13L811,298h-3.61a1.62,1.62,0,1,1,0-3.24H811l-2.65-4.59a1.62,1.62,0,1,1,2.81-1.62l2.64,4.59,1.81-3.13a1.62,1.62,0,0,1,2.81,1.62l-1.81,3.13h5.19l-1.8-3.13a1.62,1.62,0,1,1,2.8-1.62l1.81,3.13,2.65-4.59a1.62,1.62,0,0,1,2.83,1.58l0,0-2.65,4.59H831a1.62,1.62,0,0,1,0,3.24h-3.61l2.59,4.5,1.81-3.13a1.62,1.62,0,1,1,2.82,1.59l0,0-1.8,3.13h5.29a1.62,1.62,0,1,1,0,3.24Z"/></g><path id="Pfad_1127" data-name="Pfad 1127" class="cls-2" d="M455.75,264.72a41.06,41.06,0,1,0,41.06,41.06,41.06,41.06,0,0,0-41.06-41.06Zm10.88,67.51a3.89,3.89,0,0,1-3.89-3.89,3.8,3.8,0,0,1,.18-1.16l0-.11,2.26-7.18a1.49,1.49,0,0,1,2.85,0l2.22,7.07a2.58,2.58,0,0,1,.08.26,3.88,3.88,0,0,1-2.59,4.84,4,4,0,0,1-1.14.17Zm5.28-16.81a1.49,1.49,0,0,1-1.49,1.49H463a1.49,1.49,0,0,1-1.49-1.49h0v-2.54a1.49,1.49,0,0,1,1.19-1.46v-2.86a.92.92,0,0,0-.92-.92h-.31a7.85,7.85,0,0,1-13.71,0H436.45a1.49,1.49,0,0,1-1.49-1.5h0v-4.93a1.49,1.49,0,0,1,1.49-1.49H448a7.89,7.89,0,0,1,4.08-3.31v-1.85a1.53,1.53,0,0,1,0-.3h-4a1.5,1.5,0,0,1-1.49-1.5h0v-2.13a1.5,1.5,0,0,1,1.49-1.5h4v-.19a1.49,1.49,0,0,1,1.49-1.49h2.27a1.5,1.5,0,0,1,1.5,1.49v.19h4a1.5,1.5,0,0,1,1.49,1.5h0v2.13a1.5,1.5,0,0,1-1.49,1.5h-4a1,1,0,0,1,0,.3v1.85a7.9,7.9,0,0,1,4.07,3.31h2.88a6.38,6.38,0,0,1,6.38,6.38v5.32a1.5,1.5,0,0,1,1.3,1.48Z"/></g><path class="cls-1" d="M876.14,346.83c-3-3.69-7.13,1.11-13.09,5.51-8.75,6.46-20.67,12-34.91,15.3s-11.38-2.4-33.21,4.54c-33,10.49-9.3,28.55-19,47.75-10.84,21.49-42.39,10.23-58.3,6.09-24.2-6.28-33.83.42-54.66-3-4-.65-10.05.67-13.48.67s-5.08.48-7.25.58-1.85.13-3.6.12c0-2.08-.7-4.92-.89-6.83-.42-4.19-.64-8.11-.8-12.05-.07-1.78.1-2.85.12-4.52a13.53,13.53,0,0,0,2.72-1.61c7.34-7.24,15.44-14.94,20.58-23.78,5.7-9.8,10.81-22,12.12-32.51,3.79-30.43-1.47-57.82-19.24-82.36-4-5.48-7.81-6.12-14.1-6.92-8.5-1.09-14.6,1-22.43,6a38.93,38.93,0,0,0-12.29,14.07c-18.63,38.33-17.23,80.77,1.66,118.23,4.76,9.47,11.34,6.83,18.73,11.83,1,.67,2.37-.61,3.44,0,.08.82.05,1.69.06,2.53,0,1.82,0,3.46.14,5.34s.85,4.47.5,6.3c-.55,2.81,3,4-1.3,4.93a63.13,63.13,0,0,1-11.7,1.37c-27.7,1.82-53,8.43-81.89,12.75-10.55,1.59-27.73-31.8-35.3-38.77-11.93-11-22.35-17.67-32.92-26-5.18-4.07-7.47-3.58-12.08-4.38a237.63,237.63,0,0,1-30.51-7c-7.14-2.12-19.32-11.9-24-16.15s-5.15-9.77-9.67-5.31.69,8.53,4,14.65c6.33,11.52,26.24,24.5,38.59,25.29s17.34-2.85,27.22-3.09c3.75-.09,1.71,1.24,3.89,1.69s2.26,1.17,3.92,2,1.17.83,3.29,1.89,3.7,3,6.66,4.86c21.64,13.9,41.54,59.73,65.94,53.68,26.47-6.56,51.18-10.49,78.37-11.14,2.54-.06,5.75-.87,8.43-.27.34,2.65.21,6.37.3,9.08.53,17.29-2.44,41.33-4.7,56.83-4.7,32.43-10.49,60.85-12.1,92.17-.23,4.54.22,5.39.13,9.6a28.18,28.18,0,0,0-6.37-1.25c-22.76-4-45.44-10-67.74-16.25-12-3.37-27.53-7.63-38.88-7.71S484,570,476.83,578.36c-5.51,6.47-7.22,6.47-.38,16.17,9.72,13.79,17.68,24.64,33.48,39.77,11.58,11.09,31.52,29.4,46.37,42.07,12.83,10.93,28.83,25.57,41,37.39,2,2,2,2.29,3.7,4a7.78,7.78,0,0,0-1.61,2.6,58.84,58.84,0,0,1-3.54,5.57,7.1,7.1,0,0,0-1.8,2.89c.68,2,2.73,7.87,3.29,9.25a197.23,197.23,0,0,1,8,25c1.21,4.81,0,6,.2,9s-.9,4,.57,6c3.49,4.83,5.21,9,11.22,3.11,2-1.92,3.22-6.41,2.94-11.46s1.15-13.28-.89-19.89c-4.3-13.95-7.79-26.77-17.56-39.61-1.88-2.46-4.58-4.2-9.3-8.49-10.91-9.94-24.35-22.55-37.26-33.39-26.37-22.14-55.14-46.25-74.33-74.76-2.76-4.11-2.57-4.19-2.87-7-.48-4.41-2.25-4.49,2.26-6,7.07-2.41,7.33-4.7,17.19-3.72,16.32,1.63,35.28,6,53.32,11.17,15.77,4.5,36.81,9.47,53.41,12.58,3.27.61,5.45,0,7.74,1.16,3.39,1.75,2.88-.45,4.84,3.76,1.34,2.88,1.76-2.84,2.64,5.42,1.76,16.54,2.42,26.24,3,48.64.33,12.54,1.76,36,2.33,56.5.93,33.71,1.6,77.32,8.59,111.55a85.56,85.56,0,0,1,1.27,8.77c.7,4.59-.37,2-2.12,4.21-2.35,3-5.18,1.84-4.92,6.68s2.6,9.52,4.59,14.81a82.87,82.87,0,0,1,3.81,10.54,172.87,172.87,0,0,1,3.15,22.54,23.73,23.73,0,0,0,.41,4.76c-3.53.2-5.27.32-9,.43-8.35.25-13.54.66-22.86,1-7.35.25-14.65.55-21.94.89,12.38-.92,23.53-2.14,27.73-2.89,20.88-3.72-94.79,1.27-121.14,2.74-25.38,1.43-84.56.72-116.94,10.71-17.34,5.35,24.57,2.36,31.24,2.19,4.22-.11,18,.35,20.73-.51,4-1.27,3.78-1.38,5.22-.75s-2.58.46-2.94,1.17-6.29.83.11.78,7.76,0,16.9-.53,27.31-1.3,38.94-1.8,30.61-1.39,41.07-1.83c23.9-1,45.24-1.64,67.46-2.16a41,41,0,0,1,4.3.05c-1.37.21-3.08.64-3.26.64-8.21-.07-38.52,5.16-41.68,5.47-8.74.89-44.28.28-30.71,8.25,15,8.8,37,5.65,56.69,2.7a8.29,8.29,0,0,0-2.27,2c-5.46,7.29,14.11,1.26,21.14.87,4.06-.22,22.57-1,30.72-1.24s25.11-.71,32.47-1.08,13.27-1.19,17.87-.63-5.48,1.48-7,1.73c-4.6.74-24.4-3.31-19,8.3,2.22,4.78,1.46,2.53,14,3.5A769,769,0,0,0,746,942.16c7.43-.23,33.93,1,45,1.31,5,.14,14.79.56,20.34.35s20.27-2.11,23.64-2.52c7.45-.91,24.58,1.09,25.75-3.67s-11.47-1-21.65-1.21C771.93,935,715.55,934.8,720,928.66c2.68-3.73,25.36-7.83,32.48-3.69,2.51,1.47,9.38.88,11.13-1.36.38-.48.14-.79-.44-1,4.16-.24,14.61-1.38,21.37-1.68,13.52-.59,31-1.85,44.75-3,2.73-.22,2.75-.34,5.06-.53-1.36-.11-1.52-.27-2.94-.42-3.12-.33-5.2-.55-8.85-.81s-4.38-.7-9.66-1.09-9.44-.35-17.76-.39-15.2.07-27.44-.27c-46.8-1.32-101.87,1.72-147.63,3.67-11.33.48-25.23,7-22.88-1s40.47-7.79,49.47-7.28c2.71.15,6.37.09,8.37.47a31.5,31.5,0,0,0,12.12.35c2.14-.41.78-1.05,1.35-2.45h0a1.12,1.12,0,0,0-.81-1.37c4.09-.45,4.49-.71,9.26-1.15,17.44-1.6,36.38-3,54.74-4.2,3.9-.26,10.16-.84,14.26-1.58,1.79-.32,3-.68,4.68-1-3.49,0-5.73-.14-9.51-.16-8.34,0-20.43.19-28.37.36-15.66.33-28.66.53-43.86.57-2.57,0-6-.1-8.72-.06a24.28,24.28,0,0,1-1.69-3.66,104.72,104.72,0,0,1-2.27-15.57,77.09,77.09,0,0,0-5.59-22.87c-.92-2.09-2.79-5.52-3.63-7.5-1.65-3.91-3.52-6.35-5.45-9.91a7.44,7.44,0,0,1-1.1-3.29c-.55-2.38.48-.08-.44-4.32-13.32-61.76-10.83-126.63-12.73-190-.24-7.73-.87-18.78-1.17-26.41-.14-3.49-.25-5.11-.46-8.14.55-1.67,1.31.44,1.89-1.35,8-24.6,12.64-43.68,15.31-71.14,2.9-29.88,3.16-66.11-1.25-97.4-.57-4-3.51-5.95,2.43-8.33s13.18-1.1,20.43-1.23c31.13-.56,85.06,20.56,109.92-.55,13.77-11.7,6.56-26.09,7.17-43.4.22-6.2,8.83-5.44,11.4-7.15a13.85,13.85,0,0,1,8.51-1.83c2.51.22,1.81.56,2.44,2.91s-3.63,4.51-3.24,7.2c.58,4.08-4.55,5.85,4.91,6.82,7.3.75,23.94-2.31,35.3-4.75,4.19-.9,20-11.22,22.27-14.89C868.89,363.67,884.26,356.68,876.14,346.83ZM516.49,905.9c-18.42.94-41.24,3.73-61.16.77-5.14-.76,13.3-1.07,22.29-.26s23.09-1.35,32-1.4,31.71-2.61,37.49-2a139.93,139.93,0,0,0,15.93.37C547.81,904.18,532.42,905.09,516.49,905.9Zm102,17.53c5.25.42-3,.77-4.55.55s-3.18-.41-5.14-.6C612.08,923.31,615.31,923.31,618.54,923.43ZM600.89,301c1.08-4.35,1-7.72,2-11,.4-1.31,1.81-2.85,2.7-4.31,5.4-8.85,12-17.58,20.61-23.4,3.81-2.58,8.48-4.34,12-1.72,15.32,11.31,22.06,22.57,28.42,41,2.05,6,2.4,19.77,1.36,26.27a129.76,129.76,0,0,1-25.53,59.28c-4.87,6.36-8.88,6.34-15,8.54-4,1.44-5.23,2-8.29-1.06-7.31-7.29-11.34-12.5-14.34-23.66-4.6-18.06-6.42-36.36-7-55m37.79,204.4c-1.25,18.07-4.85,40.8-7.11,55.43-1.32,8.51.84,13-4.72,13.86s-1.9-5.06-1.28-12.19c.94-10.75,3.2-31.47,6-45,.82-3.92,3.32-21.06,3.58-23h0c.62-4.58,1.56-25.15,4-20.18C639,494.83,636.13,513.87,635.68,520.4Z"/><g id="Gruppe_38" data-name="Gruppe 38"><path id="path3" class="cls-5" d="M95.36,780.74c4.21-.36,16.65-48.07,72.09-53.13,45.05-4.11,86.4,16.47,84.19,27.54s-89.81,61.76-115.88,96.69c-21.31,28.56-19.07,70.51-10.95,78.27s13.53,3.25,10.86-1.05-11.86-28.58,14.54-55.2,134-65.71,118.09-131.81C256.4,692.44,152.43,670.9,106.4,727,83.64,754.69,91.14,781.11,95.36,780.74Z"/><path id="path5" class="cls-5" d="M107.73,999.67c10.24,3.15,46.13,1,25-21C119.29,964.68,86.57,993.13,107.73,999.67Z"/><g id="Gruppe_37" data-name="Gruppe 37"><path class="cls-1" d="M200.09,663.12c-2.56-18.23-9-38.34-16-50.4a87.23,87.23,0,0,1-4.13-9.58,88.41,88.41,0,0,0-3.64-8.65l-1-1.52.6-3.69c2.28-13.34,1.68-24.15-1.73-32.93-3.72-9.62-10.41-15.82-18.94-17.59a29.16,29.16,0,0,0-8.94-.4l-3,.6c-13.75,2.69-29.45,15.35-41,33a113.5,113.5,0,0,0-14.1,30.77,78.08,78.08,0,0,0-3.29,26c.16,6.05.36,7.94,1.2,11.18,2.89,11,8.94,18.68,17.19,21.76,1.76.64,1.84.76,1.48,1.72-.88,2.36-3.72,7.37-4.29,7.61-.8.28-10.45-.52-23-2-29.53-3.37-35.58-4-42.87-4.45-12.7-.76-21.87.36-27.92,3.41-2.53,1.24-2.61,1.36-3.73,4.08a38.77,38.77,0,0,0-.84,27.65c3,9.17,9.3,18.79,21.4,32.85,8.49,9.85,12.34,14.94,14.42,19,.72,1.44.92,2.44.92,5.4,0,4.13-.44,5.41-2.72,7.26-1.32,1.08-1.44,1.44-2.37,6-2.24,11-3.89,21.11-3.76,23,.08,1.44.32,2.21.85,2.53,1,.64,1.64.12,4.68-3.61,4.09-5,7.29-7.93,10.7-9.78,8.73-4.76,9-7.57,1.72-18.75-2.56-4-3-4.84-3.44-7.61-1.08-6.21-4.37-11.46-15.67-24.84-9.13-10.77-11-13.14-14.34-18.06C7,702,4,692.56,5.13,683.35c.48-4,2.2-9.62,3.24-10.66a11,11,0,0,1,3.32-1.52c7.82-2.41,19.87-2.36,42.31.16,4.73.56,15.18,1.72,23.24,2.6s15.82,1.73,17.3,1.89l2.69.32-2.29,3.6c-16.74,26.08-36.77,81.45-45.71,126.2-3.56,17.79-4,23.64-3,45.07,1.88,42.63,1.84,74.84,0,99.16-2,26-6,41.66-11.66,45.11-2,1.24-2.53,1.88-2.53,3.16,0,1.76-2.84,3.49-10.25,6.17-4.41,1.6-5.77,2.56-5.77,4s.56,1.88,4,4.2a77.92,77.92,0,0,1,7.1,5.85,41.28,41.28,0,0,0,5.28,4.41c2.57,1.36,4.57.64,8.82-3.2,3.57-3.21,5.61-4.25,11.34-5.77,5-1.37,5.53-1.69,5.53-3.05,0-1.72-2.93-3.32-15.42-8.41a35.79,35.79,0,0,1-4.93-2.33c-.44-.44-.16-.92,1.64-2.72,5.81-5.81,9.7-21,11.66-46.07,1.2-15,1.56-29.61,1.32-54.81C52,874.45,51.8,864.75,51,848.29L50.72,843h1.36c2.24,0,5.33-1.84,7.37-4.33,2.41-2.92,5.69-9.81,7.69-16.1,3.57-11.1,6.41-23.36,13.26-57.29,7.94-39.42,11.7-54.93,16.95-69.71,3.13-8.82,8.69-19.47,9.94-19.06.32.08,3.4,1.28,6.81,2.64,19.59,7.69,39.58,12.94,57.49,15a146.13,146.13,0,0,0,24.84.08l3.56-.48.4-1.6C201.1,689.33,200.9,668.81,200.09,663.12ZM77.79,736.21c-.69,3-3.37,15.95-6,28.85-6.93,34-7.61,37.3-10.42,47.71-2.76,10.22-6,18.75-8.21,21.4-.6.76-.64.48-.44-4.41.68-17.23,11.06-57.89,23.47-92.26,1.36-3.78,2.55-6.81,2.65-6.81S78.43,733.25,77.79,736.21Zm25.1-79.84c-8.6-4.24-13-14.89-13-28.4,0-12.29,3.6-26.94,10.87-41.27C108.9,570.79,121.24,557,133,550.6c7.77-4.2,15.34-5.68,20.87-4a16.51,16.51,0,0,1,7.29,4.08c5.69,5.29,8.69,14.18,8.69,25.81-.39,4.73-2.77,17.06-4,22.11a16.81,16.81,0,0,1-.94,3.71c-.78,2.81-1.8,5.87-2.69,8.2,0,.72-5.05,10.61-7.05,13.86a94.74,94.74,0,0,1-14.79,18.75,57.71,57.71,0,0,1-15.62,11.45A28.29,28.29,0,0,1,110,658C106.22,657.9,105.66,657.78,102.89,656.37Zm91.64,34.22h0c-.72.72-14.82,1-20.79.4a215.48,215.48,0,0,1-43.55-9.49c-5.73-1.84-20.88-7.45-21.4-7.94a20.12,20.12,0,0,1,1.08-2.36,23.47,23.47,0,0,0,1.65-4.44l.48-2.17,2.44-.24c7-.72,15.82-4.65,23.6-10.54a103,103,0,0,0,27.49-35.13c2.24-4.49,3-5.73,3.56-5.61a4.76,4.76,0,0,0,1.88-.2,6.94,6.94,0,0,1,5.33.68c1.17.6,1.8,1.52,3.76,5.33,7.41,14.5,11.86,29.37,14.38,48C195.17,672,195.2,689.91,194.53,690.59Z"/><path id="Pfad_1130" data-name="Pfad 1130" class="cls-1" d="M56.79,842.82c-.64.44-1.44,1-1.76,1.13s-.12,1.08,1.64,3.89C71.78,872,81.19,901.12,84.44,933.77c1.4,14,1.4,35.46,0,55.09-.84,11.5-.72,12.66,1.36,14.06,1.24.84,1.8.92,6.85.92a34.88,34.88,0,0,1,8.65.76,54.3,54.3,0,0,0,14.79,1.81c7.73,0,12.3-1.37,16-4.65a86,86,0,0,0,7.93-10c.89-1.4.61-1.4-3.6-.16C128.51,994,118,994,103,991.78l-5.53-.8-.88,1.12a15.23,15.23,0,0,1-5.41,4.41,8.65,8.65,0,0,1-2.21.88c-.12-.16,0-3.32.88-16.58a283.81,283.81,0,0,0-2-59.49A198.85,198.85,0,0,0,69.45,861c-4.76-9.61-10.21-19-11.05-19A5.88,5.88,0,0,0,56.79,842.82Z"/><path id="Pfad_1131" data-name="Pfad 1131" class="cls-1" d="M97.38,1012.93a.82.82,0,0,0,.76,0c.16-.12-.08-.24-.52-.2S97.06,1012.81,97.38,1012.93Z"/><path id="Pfad_1132" data-name="Pfad 1132" class="cls-1" d="M94.77,1013.33a3.08,3.08,0,0,0,1.21,0c.24-.12,0-.2-.73-.2S94.37,1013.21,94.77,1013.33Z"/><path id="Pfad_1133" data-name="Pfad 1133" class="cls-1" d="M92.17,1013.73a2.11,2.11,0,0,0,1,0c.24-.12,0-.2-.52-.2S91.89,1013.61,92.17,1013.73Z"/><path id="Pfad_1134" data-name="Pfad 1134" class="cls-1" d="M81.43,1015.5c-23.31,4.88-35.81,8.33-34.65,9.49.56.56,6.29.72,13.38.4a73.54,73.54,0,0,1,7.57-.12c.12.08-.28.36-.84.56-1.17.44-1.8,1.24-1,1.24.48,0,12.18-1.64,15.34-2.16.68-.08-.24-.12-2,0s-2.89,0-2.53-.16a9.64,9.64,0,0,0,2.13-2l1.48-1.69L79,1021c-1.52-.08,4.61-1,7.29-1.2,1,0,1.4-.16.92-.24-.8-.16-10.7.68-15.9,1.36-1.45.16-1.89.12-1.69-.24a2.55,2.55,0,0,1,1.56-.48c.72,0,4.8-.6,9.09-1.36s6.69-1.28,5.33-1.17l-2.53.2,1.32-1.4c1.09-1.2,1.73-1.48,4.29-2,1.88-.36,2.49-.56,1.61-.56A82.5,82.5,0,0,0,81.43,1015.5Zm3.09.19a.84.84,0,0,1-.77,0c-.32-.13-.2-.25.24-.25s.69.09.53.2Zm-2.41,2.41a.82.82,0,0,1-.76,0c-.32-.12-.2-.24.24-.24s.68.08.52.2Z"/><path id="Pfad_1135" data-name="Pfad 1135" class="cls-1" d="M93.77,1016.54a.85.85,0,0,0,.76,0c.16-.12-.08-.25-.52-.2S93.45,1016.42,93.77,1016.54Z"/><path id="Pfad_1136" data-name="Pfad 1136" class="cls-1" d="M90.77,1016.94a4.11,4.11,0,0,0,1.4,0c.36-.12,0-.2-.72-.2S90.37,1016.82,90.77,1016.94Z"/><path id="Pfad_1137" data-name="Pfad 1137" class="cls-1" d="M88.56,1017.34a2.11,2.11,0,0,0,1,0c.25-.12,0-.2-.51-.2S88.29,1017.22,88.56,1017.34Z"/><path id="Pfad_1138" data-name="Pfad 1138" class="cls-1" d="M91.77,1018.94a.82.82,0,0,0,.76,0c.16-.12-.08-.24-.52-.2S91.45,1018.82,91.77,1018.94Z"/><path id="Pfad_1139" data-name="Pfad 1139" class="cls-1" d="M89.16,1019.34a3.08,3.08,0,0,0,1.21,0c.24-.12,0-.2-.73-.2S88.76,1019.22,89.16,1019.34Z"/><path id="Pfad_1140" data-name="Pfad 1140" class="cls-1" d="M109.15,633.6l-.71-2.3c1.2-.37,2.43-.71,3.64-1A68.51,68.51,0,0,1,138,629.08l-.33,2.38a66,66,0,0,0-25,1.16C111.49,632.92,110.31,633.24,109.15,633.6Z"/></g></g><path class="cls-6" d="M150.16,593.85c-1.12,2-3.2,3-5,2.38-2.33-.85-3-3.85-1.52-6.51,1.05-1.79,2.66-2.74,4.28-2.49C150.68,587.65,151.79,590.9,150.16,593.85Z"/><path class="cls-6" d="M134.72,589.86c-.94,2.14-2.93,3.31-4.79,2.82-2.4-.65-3.35-3.58-2.08-6.36.89-1.88,2.41-3,4-2.85C134.69,583.65,136.09,586.79,134.72,589.86Z"/></g></g></svg>