<svg xmlns="http://www.w3.org/2000/svg" viewBox="0 0 566.93 566.93"><defs><style>.cls-1{fill:#2a4b9b;}</style></defs><g id="Ebene_2" data-name="Ebene 2"><g id="Ebene_2-2" data-name="Ebene 2"><path class="cls-1" d="M283.46,0C126.91,0,0,126.91,0,283.46S126.91,566.93,283.46,566.93,566.93,440,566.93,283.46,440,0,283.46,0Zm88.06,458.46a28.34,28.34,0,0,1-28.31-28.31,28,28,0,0,1,1.31-8.45c.06-.27.13-.53.21-.79l16.41-52.27a10.87,10.87,0,0,1,20.75,0l16.17,51.5a11.11,11.11,0,0,1,.56,1.89,28.28,28.28,0,0,1-27.1,36.43Zm38.41-122.37A10.87,10.87,0,0,1,399.06,347H345.37a10.87,10.87,0,0,1-10.88-10.87V317.61A10.88,10.88,0,0,1,343.21,307v-20.8a6.74,6.74,0,0,0-6.73-6.73h-2.21a57.19,57.19,0,0,1-99.83,0H151.87A10.88,10.88,0,0,1,141,268.54v-35.9a10.88,10.88,0,0,1,10.87-10.88h83.69a57.33,57.33,0,0,1,29.66-24.06V184.2a11.19,11.19,0,0,1,.21-2.18H236.24a10.87,10.87,0,0,1-10.87-10.87V155.58a10.88,10.88,0,0,1,10.87-10.88h29v-1.35a10.88,10.88,0,0,1,10.88-10.88h16.53a10.87,10.87,0,0,1,10.87,10.88v1.35h29a10.88,10.88,0,0,1,10.87,10.88v15.57A10.87,10.87,0,0,1,332.47,182h-29.2a10.47,10.47,0,0,1,.22,2.18v13.5a57.33,57.33,0,0,1,29.66,24.06h20.93a46.49,46.49,0,0,1,46.44,46.44v38.65a10.86,10.86,0,0,1,9.41,10.76Z"/></g></g></svg>